<?xml version="1.0" standalone="no"?>
<!DOCTYPE svg PUBLIC "-//W3C//DTD SVG 20010904//EN"
 "http://www.w3.org/TR/2001/REC-SVG-20010904/DTD/svg10.dtd">
<svg version="1.0" xmlns="http://www.w3.org/2000/svg"
 width="192.000000pt" height="192.000000pt" viewBox="0 0 192.000000 192.000000"
 preserveAspectRatio="xMidYMid meet">
<metadata>
Created by potrace 1.14, written by Peter Selinger 2001-2017
</metadata>
<g transform="translate(0.000000,192.000000) scale(0.100000,-0.100000)"
fill="#000000" stroke="none">
<path d="M476 1887 c-161 -178 -181 -197 -205 -197 -20 0 -50 25 -126 106 -84
88 -103 103 -113 92 -13 -17 -13 -18 158 -198 60 -63 138 -146 174 -184 86
-91 86 -101 -1 -194 -90 -97 -97 -97 -199 14 -43 48 -89 97 -101 110 -46 50
-60 13 -16 -44 14 -19 59 -69 99 -111 85 -88 90 -108 42 -156 -18 -18 -50 -51
-71 -74 -21 -22 -47 -41 -58 -41 -10 0 -27 -5 -37 -11 -18 -11 -18 -13 2 -34
12 -12 62 -66 113 -122 51 -55 137 -146 192 -204 125 -130 126 -136 38 -231
-37 -40 -73 -70 -90 -74 -30 -7 -19 -16 -176 149 -47 50 -68 66 -82 62 -21 -7
-21 -8 71 -104 108 -113 130 -141 130 -166 0 -17 -28 -54 -95 -125 -52 -55
-95 -106 -95 -113 0 -18 20 -46 20 -28 0 15 41 59 265 288 86 87 158 153 168
153 10 0 50 -30 88 -67 98 -96 94 -118 -44 -262 -81 -85 -103 -121 -72 -121 8
0 15 3 15 8 0 18 207 222 225 222 12 0 47 -29 87 -72 61 -66 67 -77 68 -115 0
-80 10 -72 285 222 72 77 140 150 152 162 36 38 69 30 128 -31 102 -105 105
-122 39 -192 -133 -141 -153 -164 -159 -183 -11 -35 13 -24 58 26 129 142 172
183 192 183 14 0 59 -38 134 -115 110 -113 113 -115 156 -115 32 0 51 6 65 20
20 20 20 33 20 945 0 824 -2 925 -15 925 -9 0 -18 7 -21 15 -4 10 -20 15 -48
15 -41 0 -45 -3 -172 -137 -249 -264 -309 -323 -329 -323 -28 0 -165 142 -165
172 0 13 17 41 38 63 131 139 192 207 192 215 0 31 -47 -3 -146 -105 -81 -84
-118 -115 -135 -115 -18 0 -44 21 -93 76 -65 71 -68 77 -63 115 5 36 3 39 -19
39 -13 0 -24 -4 -24 -8 0 -4 -37 -47 -83 -94 -45 -48 -127 -135 -182 -194 -55
-59 -111 -118 -124 -131 -34 -33 -72 -30 -107 10 -16 18 -46 52 -66 75 -21 23
-38 50 -38 60 1 16 34 56 155 184 60 65 77 99 48 97 -10 0 -31 -15 -47 -32z
m1374 -46 c6 -12 10 -97 10 -207 0 -160 -2 -190 -17 -206 -9 -10 -25 -18 -35
-18 -25 0 -218 197 -218 222 0 11 35 58 78 105 106 118 158 148 182 104z
m-789 -173 c68 -72 129 -137 134 -143 6 -6 30 -32 54 -57 41 -44 43 -48 33
-78 -6 -17 -38 -58 -71 -90 -68 -69 -109 -79 -146 -36 -27 31 -222 241 -260
279 -37 37 -65 78 -65 94 0 7 26 40 58 74 31 34 61 67 65 75 4 8 23 14 41 14
29 0 47 -15 157 -132z m-289 -140 c29 -29 108 -112 176 -185 91 -99 122 -139
122 -158 0 -18 -17 -45 -52 -83 -29 -31 -58 -62 -64 -69 -7 -6 -24 -15 -38
-19 -30 -7 -16 -19 -231 210 -156 167 -155 166 -155 187 0 27 140 169 167 169
13 0 43 -20 75 -52z m896 -50 c53 -56 112 -117 129 -135 57 -58 63 -80 63
-218 0 -138 -7 -165 -46 -165 -28 0 -117 85 -314 298 -114 123 -130 150 -107
182 41 59 130 140 153 140 18 0 50 -27 122 -102z m-1093 -195 c94 -98 92 -108
-36 -243 -55 -58 -130 -138 -167 -177 -89 -98 -102 -98 -194 -1 -79 84 -84
105 -35 153 47 47 269 283 291 311 35 43 68 32 141 -43z m853 -7 c40 -41 72
-80 72 -87 -1 -32 -11 -43 -239 -286 -97 -104 -109 -113 -142 -113 -27 0 -41
6 -52 23 -9 12 -37 44 -62 72 -35 37 -45 56 -43 76 2 18 56 82 173 207 136
147 174 182 195 182 20 0 45 -19 98 -74z m-647 -213 c62 -60 69 -72 69 -106 0
-34 -8 -47 -84 -125 -46 -48 -100 -105 -121 -127 -151 -164 -165 -171 -214
-116 -14 16 -45 50 -68 76 -24 26 -43 57 -43 69 0 12 28 50 66 91 36 39 115
123 176 188 68 72 118 117 130 117 11 0 51 -30 89 -67z m813 36 c20 -17 54
-53 77 -80 49 -59 48 -75 -12 -139 -23 -25 -69 -74 -102 -110 -162 -175 -199
-210 -226 -210 -19 0 -42 17 -89 68 -65 70 -80 101 -66 132 14 30 353 370 369
370 8 0 30 -14 49 -31z m-571 -296 c51 -53 127 -130 169 -172 97 -95 108 -121
73 -167 -69 -90 -111 -127 -145 -127 -20 0 -38 7 -46 18 -16 21 -185 203 -272
292 -77 78 -77 85 8 174 33 35 60 67 60 72 0 4 14 7 31 7 25 0 45 -16 122 -97z
m789 74 c40 -33 48 -66 48 -205 0 -136 -11 -172 -50 -172 -17 0 -82 61 -179
170 -49 54 -43 80 36 161 74 77 98 84 145 46z m-1082 -214 c14 -9 27 -20 31
-25 7 -10 189 -206 251 -270 56 -57 65 -85 45 -124 -20 -38 -131 -144 -151
-144 -9 0 -31 15 -49 34 -33 35 -186 199 -276 296 -50 53 -59 73 -43 96 26 40
138 154 152 154 8 0 27 -8 40 -17z m967 -115 c74 -73 141 -145 149 -160 10
-20 14 -64 14 -166 0 -125 -2 -141 -20 -157 -39 -36 -37 -37 -320 264 -139
148 -146 159 -126 203 17 40 128 148 152 148 9 0 77 -60 151 -132z"/>
</g>
</svg>
