<?xml version="1.0" standalone="no"?>
<!DOCTYPE svg PUBLIC "-//W3C//DTD SVG 20010904//EN"
 "http://www.w3.org/TR/2001/REC-SVG-20010904/DTD/svg10.dtd">
<svg version="1.0" xmlns="http://www.w3.org/2000/svg"
 width="70.000000pt" height="70.000000pt" viewBox="0 0 70.000000 70.000000"
 preserveAspectRatio="xMidYMid meet">
<metadata>
Created by potrace 1.14, written by Peter Selinger 2001-2017
</metadata>
<g transform="translate(0.000000,70.000000) scale(0.100000,-0.100000)"
fill="#000000" stroke="none">
<path d="M294 629 c-3 -5 3 -6 12 -2 11 4 15 2 11 -4 -4 -6 -20 -13 -37 -16
-45 -9 -53 -12 -80 -27 -14 -8 -28 -13 -31 -13 -4 1 -15 -7 -24 -17 -10 -11
-24 -20 -32 -20 -7 0 -13 -7 -13 -15 0 -7 -6 -18 -14 -22 -17 -10 -57 -89 -49
-97 4 -3 1 -6 -5 -6 -7 0 -11 -15 -10 -35 1 -19 4 -32 8 -30 4 2 7 -2 7 -10 0
-8 -4 -12 -9 -9 -4 3 -5 -2 -2 -10 3 -9 10 -16 16 -16 5 0 7 -4 3 -9 -3 -5 2
-16 10 -24 8 -9 15 -20 15 -26 0 -6 5 -11 10 -11 6 0 10 -7 10 -16 0 -8 5 -12
10 -9 6 3 10 -1 10 -10 0 -9 5 -13 10 -10 6 3 10 1 10 -4 0 -6 7 -11 15 -11 7
0 18 -8 24 -17 5 -10 12 -17 15 -16 14 6 66 -11 66 -21 0 -6 5 -4 10 4 5 8 10
10 10 4 0 -7 7 -15 16 -18 10 -4 13 -2 8 6 -5 7 -3 8 6 3 21 -13 90 -14 90 -1
0 6 5 4 10 -4 6 -9 10 -11 10 -3 0 7 7 10 15 7 9 -4 15 0 15 7 0 11 3 11 10
-1 7 -11 10 -11 10 -2 0 7 4 11 9 7 5 -3 13 0 16 6 4 5 14 8 22 5 8 -3 11 -1
8 4 -3 6 1 10 9 10 27 0 140 105 131 121 -3 4 3 12 12 18 16 9 16 12 3 21 -9
5 -10 10 -3 10 14 0 16 90 1 107 -5 7 -7 17 -3 23 3 5 1 10 -4 10 -6 0 -11 7
-11 15 0 8 -5 15 -12 15 -6 0 -9 3 -6 6 9 8 -62 75 -73 68 -5 -3 -8 -2 -7 3 2
4 -2 9 -7 11 -5 2 -17 10 -25 17 -8 7 -28 15 -45 17 -16 2 -32 6 -35 10 -3 4
-17 8 -32 10 -15 2 -30 7 -34 11 -4 3 3 4 15 2 12 -2 19 0 16 5 -6 9 -24 8
-42 -3 -7 -5 -13 -4 -13 1 0 12 -48 13 -56 1z"/>
</g>
</svg>
