<svg width="154" height="27" viewBox="0 0 154 27" fill="none" xmlns="http://www.w3.org/2000/svg">
<g filter="url(#filter0_d_167_529)">
<path d="M13.2264 10.4316C13.2264 11.1934 13.0418 11.8555 12.6727 12.418C12.3035 12.9805 11.7645 13.4141 11.0555 13.7188C10.3523 14.0234 9.49687 14.1758 8.48906 14.1758C8.04375 14.1758 7.60722 14.1465 7.17949 14.0879C6.75761 14.0293 6.35039 13.9443 5.95781 13.833C5.57109 13.7158 5.20195 13.5723 4.85039 13.4023V10.8711C5.45976 11.1406 6.09258 11.3838 6.74883 11.6006C7.40508 11.8174 8.05547 11.9258 8.7 11.9258C9.14531 11.9258 9.50273 11.8672 9.77226 11.75C10.0477 11.6328 10.2469 11.4717 10.3699 11.2666C10.493 11.0615 10.5545 10.8271 10.5545 10.5635C10.5545 10.2412 10.4461 9.96582 10.2293 9.7373C10.0125 9.50879 9.71367 9.29492 9.33281 9.0957C8.95781 8.89648 8.533 8.68262 8.0584 8.4541C7.75957 8.31348 7.43437 8.14355 7.08281 7.94434C6.73125 7.73926 6.39726 7.49023 6.08086 7.19727C5.76445 6.9043 5.50371 6.5498 5.29863 6.13379C5.09941 5.71191 4.9998 5.20801 4.9998 4.62207C4.9998 3.85449 5.17558 3.19824 5.52715 2.65332C5.87871 2.1084 6.37968 1.69238 7.03008 1.40527C7.68633 1.1123 8.45976 0.96582 9.35039 0.96582C10.0184 0.96582 10.6541 1.04492 11.2576 1.20312C11.867 1.35547 12.5027 1.57813 13.1648 1.87109L12.2859 3.98926C11.6941 3.74902 11.1639 3.56445 10.6951 3.43555C10.2264 3.30078 9.74883 3.2334 9.2625 3.2334C8.92265 3.2334 8.63261 3.28906 8.39238 3.40039C8.15215 3.50586 7.9705 3.6582 7.84746 3.85742C7.72441 4.05078 7.66289 4.27637 7.66289 4.53418C7.66289 4.83887 7.75078 5.09668 7.92656 5.30762C8.1082 5.5127 8.37773 5.71191 8.73515 5.90527C9.09843 6.09863 9.54961 6.32422 10.0887 6.58203C10.7449 6.89258 11.3045 7.21777 11.7674 7.55762C12.2361 7.8916 12.5965 8.28711 12.8484 8.74414C13.1004 9.19531 13.2264 9.75781 13.2264 10.4316ZM21.1963 3.98926C22.1045 3.98926 22.8867 4.16504 23.543 4.5166C24.1992 4.8623 24.7061 5.36621 25.0635 6.02832C25.4209 6.69043 25.5996 7.49902 25.5996 8.4541V9.75488H19.2627C19.292 10.5107 19.5176 11.1055 19.9395 11.5391C20.3672 11.9668 20.959 12.1807 21.7148 12.1807C22.3418 12.1807 22.916 12.1162 23.4375 11.9873C23.959 11.8584 24.4951 11.665 25.0459 11.4072V13.4814C24.5596 13.7217 24.0498 13.8975 23.5166 14.0088C22.9893 14.1201 22.3477 14.1758 21.5918 14.1758C20.6074 14.1758 19.7344 13.9941 18.9727 13.6309C18.2168 13.2676 17.6221 12.7139 17.1885 11.9697C16.7607 11.2256 16.5469 10.2881 16.5469 9.15723C16.5469 8.00879 16.7402 7.05371 17.127 6.29199C17.5195 5.52441 18.0645 4.9502 18.7617 4.56934C19.459 4.18262 20.2705 3.98926 21.1963 3.98926ZM21.2139 5.89648C20.6924 5.89648 20.2588 6.06348 19.9131 6.39746C19.5732 6.73145 19.377 7.25586 19.3242 7.9707H23.0859C23.0801 7.57227 23.0068 7.21777 22.8662 6.90723C22.7314 6.59668 22.5264 6.35059 22.251 6.16895C21.9814 5.9873 21.6357 5.89648 21.2139 5.89648ZM35.1603 3.98926C36.2092 3.98926 37.0529 4.27637 37.6916 4.85059C38.3303 5.41895 38.6496 6.33301 38.6496 7.59277V14H35.9689V8.26074C35.9689 7.55762 35.84 7.02734 35.5822 6.66992C35.3303 6.3125 34.9318 6.13379 34.3869 6.13379C33.5666 6.13379 33.007 6.41211 32.7082 6.96875C32.4094 7.52539 32.26 8.32812 32.26 9.37695V14H29.5793V4.17383H31.6271L31.9875 5.43066H32.1369C32.3478 5.09082 32.6086 4.81543 32.9191 4.60449C33.2355 4.39355 33.5842 4.23828 33.965 4.13867C34.3518 4.03906 34.7502 3.98926 35.1603 3.98926ZM46.3207 14.1758C45.225 14.1758 44.3314 13.748 43.64 12.8926C42.9545 12.0312 42.6117 10.7686 42.6117 9.10449C42.6117 7.42285 42.9604 6.15137 43.6576 5.29004C44.3549 4.42285 45.266 3.98926 46.391 3.98926C46.8598 3.98926 47.2729 4.05371 47.6303 4.18262C47.9877 4.31152 48.2953 4.48438 48.5531 4.70117C48.8168 4.91797 49.0395 5.16113 49.2211 5.43066H49.309C49.2738 5.24316 49.2299 4.96777 49.1771 4.60449C49.1303 4.23535 49.1068 3.85742 49.1068 3.4707V0.324219H51.7963V14H49.7396L49.2211 12.7256H49.1068C48.9369 12.9951 48.723 13.2412 48.4652 13.4639C48.2133 13.6807 47.9115 13.8535 47.56 13.9824C47.2084 14.1113 46.7953 14.1758 46.3207 14.1758ZM47.2611 12.04C47.9936 12.04 48.5092 11.8232 48.808 11.3896C49.1127 10.9502 49.2738 10.291 49.2914 9.41211V9.12207C49.2914 8.16699 49.1449 7.4375 48.852 6.93359C48.559 6.42383 48.0141 6.16895 47.2172 6.16895C46.6254 6.16895 46.1625 6.42383 45.8285 6.93359C45.4945 7.44336 45.3275 8.17871 45.3275 9.13965C45.3275 10.1006 45.4945 10.8242 45.8285 11.3105C46.1684 11.7969 46.6459 12.04 47.2611 12.04ZM74.4158 3.98926C75.5291 3.98926 76.3699 4.27637 76.9383 4.85059C77.5125 5.41895 77.7996 6.33301 77.7996 7.59277V14H75.1102V8.26074C75.1102 7.55762 74.99 7.02734 74.7498 6.66992C74.5096 6.3125 74.1375 6.13379 73.6336 6.13379C72.9246 6.13379 72.4207 6.38867 72.1219 6.89844C71.823 7.40234 71.6736 8.12598 71.6736 9.06934V14H68.993V8.26074C68.993 7.79199 68.9402 7.39941 68.8348 7.08301C68.7293 6.7666 68.5682 6.5293 68.3514 6.37109C68.1346 6.21289 67.8562 6.13379 67.5164 6.13379C67.0184 6.13379 66.6258 6.25977 66.3387 6.51172C66.0574 6.75781 65.8553 7.12402 65.7322 7.61035C65.615 8.09082 65.5564 8.67969 65.5564 9.37695V14H62.8758V4.17383H64.9236L65.284 5.43066H65.4334C65.6326 5.09082 65.8816 4.81543 66.1805 4.60449C66.4852 4.39355 66.8191 4.23828 67.1824 4.13867C67.5457 4.03906 67.9148 3.98926 68.2898 3.98926C69.0105 3.98926 69.6199 4.10645 70.118 4.34082C70.6219 4.5752 71.0086 4.93848 71.2781 5.43066H71.5154C71.8084 4.92676 72.2215 4.56055 72.7547 4.33203C73.2937 4.10352 73.8475 3.98926 74.4158 3.98926ZM86.4111 3.98926C87.3193 3.98926 88.1016 4.16504 88.7578 4.5166C89.4141 4.8623 89.9209 5.36621 90.2783 6.02832C90.6357 6.69043 90.8145 7.49902 90.8145 8.4541V9.75488H84.4775C84.5068 10.5107 84.7324 11.1055 85.1543 11.5391C85.582 11.9668 86.1738 12.1807 86.9297 12.1807C87.5566 12.1807 88.1309 12.1162 88.6523 11.9873C89.1738 11.8584 89.71 11.665 90.2607 11.4072V13.4814C89.7744 13.7217 89.2646 13.8975 88.7314 14.0088C88.2041 14.1201 87.5625 14.1758 86.8066 14.1758C85.8223 14.1758 84.9492 13.9941 84.1875 13.6309C83.4316 13.2676 82.8369 12.7139 82.4033 11.9697C81.9756 11.2256 81.7617 10.2881 81.7617 9.15723C81.7617 8.00879 81.9551 7.05371 82.3418 6.29199C82.7344 5.52441 83.2793 4.9502 83.9766 4.56934C84.6738 4.18262 85.4854 3.98926 86.4111 3.98926ZM86.4287 5.89648C85.9072 5.89648 85.4736 6.06348 85.1279 6.39746C84.7881 6.73145 84.5918 7.25586 84.5391 7.9707H88.3008C88.2949 7.57227 88.2217 7.21777 88.0811 6.90723C87.9463 6.59668 87.7412 6.35059 87.4658 6.16895C87.1963 5.9873 86.8506 5.89648 86.4287 5.89648ZM101.65 11.082C101.65 11.75 101.491 12.3154 101.175 12.7783C100.864 13.2354 100.399 13.584 99.7775 13.8242C99.1564 14.0586 98.383 14.1758 97.4572 14.1758C96.7717 14.1758 96.1828 14.1318 95.6906 14.0439C95.2043 13.9561 94.7121 13.8096 94.2141 13.6045V11.3896C94.7473 11.6299 95.3186 11.8291 95.9279 11.9873C96.5432 12.1396 97.0822 12.2158 97.5451 12.2158C98.0666 12.2158 98.4387 12.1396 98.6613 11.9873C98.8898 11.8291 99.0041 11.624 99.0041 11.3721C99.0041 11.208 98.9572 11.0615 98.8635 10.9326C98.7756 10.7979 98.5822 10.6484 98.2834 10.4844C97.9846 10.3145 97.5158 10.0947 96.8771 9.8252C96.2619 9.56738 95.7551 9.30664 95.3566 9.04297C94.9641 8.7793 94.6711 8.46875 94.4777 8.11133C94.2902 7.74805 94.1965 7.28809 94.1965 6.73145C94.1965 5.82324 94.548 5.14062 95.2512 4.68359C95.9602 4.2207 96.9064 3.98926 98.09 3.98926C98.6994 3.98926 99.2795 4.05078 99.8303 4.17383C100.387 4.29688 100.958 4.49316 101.544 4.7627L100.736 6.69629C100.249 6.48535 99.7893 6.3125 99.3557 6.17773C98.9279 6.04297 98.4914 5.97559 98.0461 5.97559C97.6535 5.97559 97.3576 6.02832 97.1584 6.13379C96.9592 6.23926 96.8596 6.40039 96.8596 6.61719C96.8596 6.77539 96.9094 6.91602 97.009 7.03906C97.1144 7.16211 97.3137 7.2998 97.6066 7.45215C97.9055 7.59863 98.342 7.78906 98.9162 8.02344C99.4728 8.25195 99.9562 8.49219 100.366 8.74414C100.777 8.99023 101.093 9.29785 101.316 9.66699C101.538 10.0303 101.65 10.502 101.65 11.082ZM112.397 11.082C112.397 11.75 112.239 12.3154 111.922 12.7783C111.612 13.2354 111.146 13.584 110.525 13.8242C109.904 14.0586 109.13 14.1758 108.204 14.1758C107.519 14.1758 106.93 14.1318 106.438 14.0439C105.952 13.9561 105.459 13.8096 104.961 13.6045V11.3896C105.495 11.6299 106.066 11.8291 106.675 11.9873C107.29 12.1396 107.829 12.2158 108.292 12.2158C108.814 12.2158 109.186 12.1396 109.409 11.9873C109.637 11.8291 109.751 11.624 109.751 11.3721C109.751 11.208 109.704 11.0615 109.611 10.9326C109.523 10.7979 109.329 10.6484 109.031 10.4844C108.732 10.3145 108.263 10.0947 107.624 9.8252C107.009 9.56738 106.502 9.30664 106.104 9.04297C105.711 8.7793 105.418 8.46875 105.225 8.11133C105.037 7.74805 104.944 7.28809 104.944 6.73145C104.944 5.82324 105.295 5.14062 105.998 4.68359C106.707 4.2207 107.654 3.98926 108.837 3.98926C109.447 3.98926 110.027 4.05078 110.578 4.17383C111.134 4.29688 111.705 4.49316 112.291 4.7627L111.483 6.69629C110.996 6.48535 110.537 6.3125 110.103 6.17773C109.675 6.04297 109.239 5.97559 108.793 5.97559C108.401 5.97559 108.105 6.02832 107.906 6.13379C107.706 6.23926 107.607 6.40039 107.607 6.61719C107.607 6.77539 107.657 6.91602 107.756 7.03906C107.862 7.16211 108.061 7.2998 108.354 7.45215C108.653 7.59863 109.089 7.78906 109.663 8.02344C110.22 8.25195 110.704 8.49219 111.114 8.74414C111.524 8.99023 111.84 9.29785 112.063 9.66699C112.286 10.0303 112.397 10.502 112.397 11.082ZM120.314 3.97168C121.632 3.97168 122.643 4.25879 123.346 4.83301C124.049 5.40723 124.401 6.28027 124.401 7.45215V14H122.529L122.01 12.6641H121.94C121.659 13.0156 121.372 13.3027 121.079 13.5254C120.786 13.748 120.449 13.9121 120.068 14.0176C119.687 14.123 119.224 14.1758 118.679 14.1758C118.099 14.1758 117.578 14.0645 117.115 13.8418C116.658 13.6191 116.297 13.2793 116.034 12.8223C115.77 12.3594 115.638 11.7734 115.638 11.0645C115.638 10.0215 116.004 9.25391 116.737 8.76172C117.469 8.26367 118.568 7.98828 120.033 7.93555L121.738 7.88281V7.45215C121.738 6.93652 121.603 6.55859 121.334 6.31836C121.064 6.07812 120.689 5.95801 120.209 5.95801C119.734 5.95801 119.268 6.02539 118.811 6.16016C118.354 6.29492 117.897 6.46484 117.44 6.66992L116.552 4.85938C117.074 4.58398 117.657 4.36719 118.301 4.20898C118.952 4.05078 119.623 3.97168 120.314 3.97168ZM121.738 9.44727L120.701 9.48242C119.834 9.50586 119.23 9.66113 118.89 9.94824C118.556 10.2354 118.389 10.6133 118.389 11.082C118.389 11.4922 118.509 11.7852 118.75 11.9609C118.99 12.1309 119.303 12.2158 119.69 12.2158C120.264 12.2158 120.748 12.0459 121.14 11.7061C121.539 11.3662 121.738 10.8828 121.738 10.2559V9.44727ZM131.844 18.3242C130.472 18.3242 129.424 18.084 128.697 17.6035C127.976 17.1289 127.616 16.4609 127.616 15.5996C127.616 15.0078 127.801 14.5127 128.17 14.1143C128.539 13.7158 129.081 13.4316 129.796 13.2617C129.52 13.1445 129.28 12.9541 129.075 12.6904C128.87 12.4209 128.767 12.1367 128.767 11.8379C128.767 11.4629 128.876 11.1523 129.093 10.9062C129.309 10.6543 129.623 10.4082 130.033 10.168C129.517 9.94531 129.107 9.58789 128.803 9.0957C128.504 8.60352 128.354 8.02344 128.354 7.35547C128.354 6.64062 128.51 6.03418 128.82 5.53613C129.137 5.03223 129.594 4.64844 130.191 4.38477C130.795 4.12109 131.527 3.98926 132.388 3.98926C132.57 3.98926 132.781 4.00098 133.021 4.02441C133.262 4.04785 133.481 4.07422 133.68 4.10352C133.886 4.13281 134.023 4.15625 134.094 4.17383H137.521V5.53613L135.983 5.93164C136.124 6.14844 136.229 6.37988 136.3 6.62598C136.37 6.87207 136.405 7.13281 136.405 7.4082C136.405 8.46289 136.036 9.28613 135.298 9.87793C134.565 10.4639 133.546 10.7568 132.239 10.7568C131.929 10.7393 131.636 10.7158 131.36 10.6865C131.225 10.792 131.123 10.9033 131.053 11.0205C130.982 11.1377 130.947 11.2607 130.947 11.3896C130.947 11.5186 131 11.627 131.105 11.7148C131.217 11.7969 131.381 11.8613 131.597 11.9082C131.82 11.9492 132.096 11.9697 132.424 11.9697H134.094C135.172 11.9697 135.992 12.2012 136.554 12.6641C137.123 13.127 137.407 13.8066 137.407 14.7031C137.407 15.8516 136.927 16.7422 135.966 17.375C135.011 18.0078 133.637 18.3242 131.844 18.3242ZM131.958 16.5752C132.596 16.5752 133.144 16.5137 133.601 16.3906C134.064 16.2734 134.419 16.1035 134.665 15.8809C134.911 15.6641 135.034 15.4033 135.034 15.0986C135.034 14.8525 134.961 14.6562 134.814 14.5098C134.674 14.3691 134.457 14.2695 134.164 14.2109C133.877 14.1523 133.508 14.123 133.056 14.123H131.668C131.34 14.123 131.044 14.1758 130.78 14.2812C130.522 14.3867 130.317 14.5332 130.165 14.7207C130.012 14.9141 129.936 15.1367 129.936 15.3887C129.936 15.7578 130.112 16.0479 130.464 16.2588C130.821 16.4697 131.319 16.5752 131.958 16.5752ZM132.388 9.12207C132.892 9.12207 133.262 8.9668 133.496 8.65625C133.73 8.3457 133.847 7.92383 133.847 7.39062C133.847 6.79883 133.724 6.35645 133.478 6.06348C133.238 5.76465 132.875 5.61523 132.388 5.61523C131.896 5.61523 131.527 5.76465 131.281 6.06348C131.035 6.35645 130.912 6.79883 130.912 7.39062C130.912 7.92383 131.032 8.3457 131.272 8.65625C131.518 8.9668 131.89 9.12207 132.388 9.12207ZM144.999 3.98926C145.907 3.98926 146.689 4.16504 147.346 4.5166C148.002 4.8623 148.509 5.36621 148.866 6.02832C149.224 6.69043 149.402 7.49902 149.402 8.4541V9.75488H143.065C143.095 10.5107 143.32 11.1055 143.742 11.5391C144.17 11.9668 144.762 12.1807 145.518 12.1807C146.145 12.1807 146.719 12.1162 147.24 11.9873C147.762 11.8584 148.298 11.665 148.849 11.4072V13.4814C148.362 13.7217 147.853 13.8975 147.319 14.0088C146.792 14.1201 146.15 14.1758 145.395 14.1758C144.41 14.1758 143.537 13.9941 142.775 13.6309C142.02 13.2676 141.425 12.7139 140.991 11.9697C140.563 11.2256 140.35 10.2881 140.35 9.15723C140.35 8.00879 140.543 7.05371 140.93 6.29199C141.322 5.52441 141.867 4.9502 142.564 4.56934C143.262 4.18262 144.073 3.98926 144.999 3.98926ZM145.017 5.89648C144.495 5.89648 144.062 6.06348 143.716 6.39746C143.376 6.73145 143.18 7.25586 143.127 7.9707H146.889C146.883 7.57227 146.81 7.21777 146.669 6.90723C146.534 6.59668 146.329 6.35059 146.054 6.16895C145.784 5.9873 145.438 5.89648 145.017 5.89648Z" fill="white"/>
<path d="M11.0555 13.7188L10.6606 12.8L10.6579 12.8012L11.0555 13.7188ZM7.17949 14.0879L7.04192 15.0784L7.04377 15.0786L7.17949 14.0879ZM5.95781 13.833L5.6678 14.79L5.67637 14.7926L5.68499 14.7951L5.95781 13.833ZM4.85039 13.4023H3.85039V14.0297L4.41522 14.3027L4.85039 13.4023ZM4.85039 10.8711L5.25489 9.95656L3.85039 9.33533V10.8711H4.85039ZM9.77226 11.75L9.3807 10.8298L9.37354 10.8329L9.77226 11.75ZM9.33281 9.0957L8.86364 9.97884L8.86931 9.9818L9.33281 9.0957ZM8.0584 8.4541L8.49223 7.55306L8.48419 7.54928L8.0584 8.4541ZM7.08281 7.94434L6.5789 8.80818L6.5898 8.81436L7.08281 7.94434ZM5.29863 6.13379L4.39438 6.5608L4.39797 6.5684L4.40169 6.57594L5.29863 6.13379ZM7.03008 1.40527L7.43392 2.32011L7.43773 2.31841L7.03008 1.40527ZM11.2576 1.20312L11.004 2.17051L11.0151 2.17327L11.2576 1.20312ZM13.1648 1.87109L14.0885 2.25435L14.4629 1.35195L13.5695 0.956616L13.1648 1.87109ZM12.2859 3.98926L11.9098 4.91582L12.8293 5.28907L13.2096 4.37251L12.2859 3.98926ZM10.6951 3.43555L10.4188 4.39668L10.43 4.39975L10.6951 3.43555ZM8.39238 3.40039L8.79437 4.31603L8.80365 4.31196L8.81284 4.3077L8.39238 3.40039ZM7.84746 3.85742L8.6912 4.39435L8.69826 4.38291L7.84746 3.85742ZM7.92656 5.30762L7.15834 5.9478L7.16798 5.95937L7.17797 5.97065L7.92656 5.30762ZM8.73515 5.90527L8.25932 6.78484L8.2653 6.78802L8.73515 5.90527ZM10.0887 6.58203L9.65721 7.48417L9.66093 7.48593L10.0887 6.58203ZM11.7674 7.55762L11.1756 8.3637L11.1813 8.36791L11.1871 8.37204L11.7674 7.55762ZM12.8484 8.74414L11.9727 9.22693L11.9753 9.23171L12.8484 8.74414ZM12.2264 10.4316C12.2264 11.025 12.0851 11.4907 11.8366 11.8693L13.5087 12.9666C13.9985 12.2203 14.2264 11.3617 14.2264 10.4316H12.2264ZM11.8366 11.8693C11.5902 12.2447 11.2167 12.561 10.6606 12.8L11.4503 14.6375C12.3122 14.2671 13.0168 13.7162 13.5087 12.9666L11.8366 11.8693ZM10.6579 12.8012C10.1131 13.0373 9.40113 13.1758 8.48906 13.1758V15.1758C9.59262 15.1758 10.5916 15.0096 11.4531 14.6363L10.6579 12.8012ZM8.48906 13.1758C8.08772 13.1758 7.69658 13.1494 7.31521 13.0971L7.04377 15.0786C7.51787 15.1436 7.99977 15.1758 8.48906 15.1758V13.1758ZM7.31706 13.0974C6.93888 13.0449 6.57695 12.9692 6.23063 12.8709L5.68499 14.7951C6.12383 14.9195 6.57634 15.0137 7.04192 15.0784L7.31706 13.0974ZM6.24782 12.876C5.90916 12.7734 5.58868 12.6485 5.28556 12.502L4.41522 14.3027C4.81522 14.496 5.23302 14.6583 5.6678 14.79L6.24782 12.876ZM5.85039 13.4023V10.8711H3.85039V13.4023H5.85039ZM4.44588 11.7856C5.08602 12.0688 5.74921 12.3235 6.43514 12.5501L7.06251 10.6511C6.43594 10.4441 5.8335 10.2125 5.25489 9.95656L4.44588 11.7856ZM6.43514 12.5501C7.18527 12.7979 7.94143 12.9258 8.7 12.9258V10.9258C8.1695 10.9258 7.62488 10.8368 7.06251 10.6511L6.43514 12.5501ZM8.7 12.9258C9.2186 12.9258 9.72793 12.8597 10.171 12.6671L9.37354 10.8329C9.27753 10.8747 9.07202 10.9258 8.7 10.9258V12.9258ZM10.1638 12.6702C10.5841 12.4913 10.9711 12.2083 11.2274 11.7811L9.51243 10.7521C9.5153 10.7473 9.51447 10.7515 9.49935 10.7637C9.48275 10.7772 9.44701 10.8016 9.38071 10.8298L10.1638 12.6702ZM11.2274 11.7811C11.4531 11.405 11.5545 10.9893 11.5545 10.5635H9.55449C9.55449 10.665 9.53285 10.7181 9.51243 10.7521L11.2274 11.7811ZM11.5545 10.5635C11.5545 9.99167 11.3523 9.46807 10.9548 9.04904L9.50383 10.4256C9.53988 10.4636 9.55449 10.4907 9.55449 10.5635H11.5545ZM10.9548 9.04904C10.6401 8.71739 10.2417 8.44258 9.79631 8.2096L8.86931 9.9818C9.18563 10.1473 9.38488 10.3002 9.50383 10.4256L10.9548 9.04904ZM9.80196 8.21259C9.41293 8.00592 8.97603 7.78605 8.49221 7.5531L7.62458 9.3551C8.08998 9.57919 8.50268 9.78705 8.86365 9.97882L9.80196 8.21259ZM8.48419 7.54928C8.21257 7.42146 7.91007 7.26372 7.57582 7.07431L6.5898 8.81436C6.95868 9.02339 7.30657 9.20549 7.6326 9.35892L8.48419 7.54928ZM7.58668 7.08056C7.30183 6.91439 7.02625 6.70979 6.76026 6.4635L5.40145 7.93103C5.76828 8.27068 6.16067 8.56412 6.57894 8.80811L7.58668 7.08056ZM6.76026 6.4635C6.54017 6.25972 6.35069 6.00631 6.19557 5.69164L4.40169 6.57594C4.65672 7.0933 4.98873 7.54888 5.40145 7.93103L6.76026 6.4635ZM6.20288 5.70678C6.08071 5.44807 5.9998 5.09707 5.9998 4.62207H3.9998C3.9998 5.31895 4.11812 5.97576 4.39438 6.5608L6.20288 5.70678ZM5.9998 4.62207C5.9998 4.01092 6.13801 3.55106 6.36744 3.19545L4.68685 2.11119C4.21315 2.84542 3.9998 3.69806 3.9998 4.62207H5.9998ZM6.36744 3.19545C6.60292 2.83046 6.94438 2.5362 7.43392 2.3201L6.62623 0.490445C5.81499 0.848561 5.1545 1.38634 4.68685 2.11119L6.36744 3.19545ZM7.43773 2.31841C7.93888 2.09468 8.56755 1.96582 9.35039 1.96582V-0.0341797C8.35197 -0.0341797 7.43377 0.129928 6.62242 0.492136L7.43773 2.31841ZM9.35039 1.96582C9.93879 1.96582 10.4889 2.03541 11.004 2.17044L11.5112 0.235808C10.8193 0.0544328 10.0979 -0.0341797 9.35039 -0.0341797V1.96582ZM11.0151 2.17327C11.5613 2.30982 12.1427 2.51234 12.7602 2.78557L13.5695 0.956616C12.8628 0.643908 12.1727 0.401118 11.5001 0.232982L11.0151 2.17327ZM12.2412 1.48784L11.3623 3.606L13.2096 4.37251L14.0885 2.25435L12.2412 1.48784ZM12.6621 3.06269C12.0446 2.81202 11.4763 2.61324 10.9603 2.47134L10.43 4.39975C10.8515 4.51566 11.3437 4.68603 11.9098 4.91582L12.6621 3.06269ZM10.9714 2.47448C10.4131 2.31396 9.84257 2.2334 9.2625 2.2334V4.2334C9.65508 4.2334 10.0396 4.2876 10.4188 4.39662L10.9714 2.47448ZM9.2625 2.2334C8.81711 2.2334 8.3757 2.30596 7.97192 2.49308L8.81284 4.3077C8.88952 4.27216 9.0282 4.2334 9.2625 4.2334V2.2334ZM7.99039 2.48475C7.58772 2.66153 7.2389 2.93973 6.99666 3.33193L8.69826 4.38291C8.70211 4.37667 8.71658 4.35019 8.79437 4.31603L7.99039 2.48475ZM7.0038 3.32055C6.76626 3.69382 6.66289 4.11064 6.66289 4.53418H8.66289C8.66289 4.44209 8.68256 4.40775 8.69112 4.3943L7.0038 3.32055ZM6.66289 4.53418C6.66289 5.04543 6.81616 5.53719 7.15834 5.9478L8.69478 4.66743C8.6854 4.65617 8.66289 4.6323 8.66289 4.53418H6.66289ZM7.17797 5.97065C7.46505 6.29477 7.84398 6.56011 8.25933 6.78482L9.21097 5.02573C8.91149 4.86371 8.75135 4.73062 8.67515 4.64458L7.17797 5.97065ZM8.2653 6.78802C8.64548 6.99037 9.11043 7.22266 9.65721 7.48417L10.5201 5.6799C9.98879 5.42578 9.55139 5.20689 9.205 5.02253L8.2653 6.78802ZM9.66093 7.48593C10.2738 7.77597 10.7755 8.06998 11.1756 8.3637L12.3592 6.75154C11.8335 6.36557 11.216 6.00918 10.5164 5.67813L9.66093 7.48593ZM11.1871 8.37204C11.5465 8.62808 11.8003 8.9142 11.9727 9.22692L13.7242 8.26136C13.3927 7.66001 12.9258 7.15512 12.3477 6.7432L11.1871 8.37204ZM11.9753 9.23171C12.1225 9.49529 12.2264 9.8781 12.2264 10.4316H14.2264C14.2264 9.63753 14.0782 8.89534 13.7215 8.25657L11.9753 9.23171ZM23.543 4.5166L23.0707 5.3981L23.0769 5.40135L23.543 4.5166ZM25.5996 9.75488V10.7549H26.5996V9.75488H25.5996ZM19.2627 9.75488V8.75488H18.2232L18.2634 9.79361L19.2627 9.75488ZM19.9395 11.5391L19.2227 12.2365L19.2323 12.2462L19.9395 11.5391ZM25.0459 11.4072H26.0459V9.83501L24.622 10.5015L25.0459 11.4072ZM25.0459 13.4814L25.4888 14.378L26.0459 14.1028V13.4814H25.0459ZM23.5166 14.0088L23.3122 13.0299L23.31 13.0304L23.5166 14.0088ZM18.9727 13.6309L18.5395 14.5322L18.5422 14.5335L18.9727 13.6309ZM17.1885 11.9697L16.3215 12.4681L16.3244 12.4732L17.1885 11.9697ZM17.127 6.29199L16.2366 5.83664L16.2353 5.8393L17.127 6.29199ZM18.7617 4.56934L19.2411 5.44697L19.2467 5.44384L18.7617 4.56934ZM19.9131 6.39746L19.2182 5.67824L19.2122 5.68423L19.9131 6.39746ZM19.3242 7.9707L18.3269 7.89713L18.2477 8.9707H19.3242V7.9707ZM23.0859 7.9707V8.9707H24.1007L24.0858 7.956L23.0859 7.9707ZM22.8662 6.90723L21.9489 7.30532L21.952 7.31255L21.9553 7.31973L22.8662 6.90723ZM22.251 6.16895L21.6921 6.99825L21.7004 7.00372L22.251 6.16895ZM21.1963 4.98926C21.9756 4.98926 22.5884 5.13966 23.0707 5.39808L24.0152 3.63512C23.1851 3.19042 22.2334 2.98926 21.1963 2.98926V4.98926ZM23.0769 5.40135C23.5549 5.65316 23.9189 6.01317 24.1835 6.50335L25.9434 5.55329C25.4932 4.71925 24.8435 4.07145 24.009 3.63185L23.0769 5.40135ZM24.1835 6.50335C24.4437 6.98539 24.5996 7.6212 24.5996 8.4541H26.5996C26.5996 7.37685 26.3981 6.39546 25.9434 5.55329L24.1835 6.50335ZM24.5996 8.4541V9.75488H26.5996V8.4541H24.5996ZM25.5996 8.75488H19.2627V10.7549H25.5996V8.75488ZM18.2634 9.79361C18.2998 10.7321 18.5884 11.5845 19.2227 12.2364L20.6562 10.8417C20.4467 10.6265 20.2842 10.2894 20.2619 9.71615L18.2634 9.79361ZM19.2323 12.2462C19.8919 12.9057 20.7637 13.1807 21.7148 13.1807V11.1807C21.1543 11.1807 20.8425 11.0279 20.6466 10.832L19.2323 12.2462ZM21.7148 13.1807C22.4096 13.1807 23.0657 13.1093 23.6775 12.9581L23.1975 11.0165C22.7663 11.1231 22.274 11.1807 21.7148 11.1807V13.1807ZM23.6775 12.9581C24.2699 12.8116 24.8676 12.5948 25.4698 12.3129L24.622 10.5015C24.1226 10.7353 23.6481 10.9052 23.1975 11.0165L23.6775 12.9581ZM24.0459 11.4072V13.4814H26.0459V11.4072H24.0459ZM24.603 12.5849C24.1927 12.7875 23.7631 12.9358 23.3122 13.0299L23.721 14.9877C24.3365 14.8592 24.9264 14.6558 25.4888 14.378L24.603 12.5849ZM23.31 13.0304C22.8716 13.1229 22.3036 13.1758 21.5918 13.1758V15.1758C22.3917 15.1758 23.1069 15.1173 23.7232 14.9872L23.31 13.0304ZM21.5918 13.1758C20.7317 13.1758 20.0098 13.0176 19.4031 12.7283L18.5422 14.5335C19.459 14.9707 20.4831 15.1758 21.5918 15.1758V13.1758ZM19.4058 12.7296C18.8352 12.4553 18.3884 12.0427 18.0525 11.4663L16.3244 12.4732C16.8558 13.3851 17.5984 14.0799 18.5395 14.5322L19.4058 12.7296ZM18.0555 11.4714C17.7383 10.9196 17.5469 10.1671 17.5469 9.15723H15.5469C15.5469 10.4091 15.7832 11.5316 16.3215 12.4681L18.0555 11.4714ZM17.5469 9.15723C17.5469 8.11441 17.7233 7.32634 18.0186 6.74468L16.2353 5.8393C15.7571 6.78109 15.5469 7.90317 15.5469 9.15723H17.5469ZM18.0173 6.74734C18.3265 6.14264 18.7352 5.72327 19.2411 5.44695L18.2823 3.69172C17.3937 4.17712 16.7125 4.90619 16.2366 5.83664L18.0173 6.74734ZM19.2467 5.44384C19.7732 5.15183 20.4127 4.98926 21.1963 4.98926V2.98926C20.1284 2.98926 19.1447 3.2134 18.2767 3.69483L19.2467 5.44384ZM21.2139 4.89648C20.4573 4.89648 19.7671 5.14805 19.2183 5.67827L20.6079 7.11665C20.7505 6.9789 20.9275 6.89648 21.2139 6.89648V4.89648ZM19.2122 5.68423C18.63 6.25633 18.3888 7.05844 18.3269 7.89713L20.3215 8.04427C20.3651 7.45328 20.5165 7.20656 20.614 7.11069L19.2122 5.68423ZM19.3242 8.9707H23.0859V6.9707H19.3242V8.9707ZM24.0858 7.956C24.0783 7.44319 23.9832 6.94968 23.7772 6.49472L21.9553 7.31973C22.0305 7.48587 22.0819 7.70134 22.086 7.98541L24.0858 7.956ZM23.7836 6.50913C23.5737 6.02545 23.2434 5.62561 22.8016 5.33417L21.7004 7.00372C21.8093 7.07556 21.8892 7.16791 21.9489 7.30532L23.7836 6.50913ZM22.8098 5.33968C22.3324 5.01791 21.7761 4.89648 21.2139 4.89648V6.89648C21.4954 6.89648 21.6305 6.9567 21.6921 6.99821L22.8098 5.33968ZM37.6916 4.85059L37.023 5.59423L37.0268 5.59762L37.6916 4.85059ZM38.6496 14V15H39.6496V14H38.6496ZM35.9689 14H34.9689V15H35.9689V14ZM35.5822 6.66992L34.7648 7.24611L34.7712 7.25493L35.5822 6.66992ZM32.26 14V15H33.26V14H32.26ZM29.5793 14H28.5793V15H29.5793V14ZM29.5793 4.17383V3.17383H28.5793V4.17383H29.5793ZM31.6271 4.17383L32.5884 3.89822L32.3807 3.17383H31.6271V4.17383ZM31.9875 5.43066L31.0262 5.70627L31.2339 6.43066H31.9875V5.43066ZM32.1369 5.43066V6.43066H32.6932L32.9866 5.95803L32.1369 5.43066ZM32.9191 4.60449L32.3644 3.77241L32.3573 3.77728L32.9191 4.60449ZM33.965 4.13867L33.7156 3.17027L33.712 3.17121L33.965 4.13867ZM35.1603 4.98926C36.0195 4.98926 36.6064 5.21967 37.023 5.59422L38.3602 4.10695C37.4994 3.33306 36.3988 2.98926 35.1603 2.98926V4.98926ZM37.0268 5.59762C37.3677 5.90102 37.6496 6.48142 37.6496 7.59277H39.6496C39.6496 6.18459 39.2928 4.93688 38.3564 4.10355L37.0268 5.59762ZM37.6496 7.59277V14H39.6496V7.59277H37.6496ZM38.6496 13H35.9689V15H38.6496V13ZM36.9689 14V8.26074H34.9689V14H36.9689ZM36.9689 8.26074C36.9689 7.46303 36.8276 6.68703 36.3933 6.08492L34.7712 7.25493C34.8525 7.36766 34.9689 7.6522 34.9689 8.26074H36.9689ZM36.3996 6.09376C35.9139 5.40476 35.1671 5.13379 34.3869 5.13379V7.13379C34.6965 7.13379 34.7467 7.22024 34.7649 7.24608L36.3996 6.09376ZM34.3869 5.13379C33.3264 5.13379 32.3534 5.51547 31.8271 6.49576L33.5893 7.44174C33.6607 7.30875 33.8068 7.13379 34.3869 7.13379V5.13379ZM31.8271 6.49576C31.4148 7.26392 31.26 8.25929 31.26 9.37695H33.26C33.26 8.39696 33.404 7.78687 33.5893 7.44174L31.8271 6.49576ZM31.26 9.37695V14H33.26V9.37695H31.26ZM32.26 13H29.5793V15H32.26V13ZM30.5793 14V4.17383H28.5793V14H30.5793ZM29.5793 5.17383H31.6271V3.17383H29.5793V5.17383ZM30.6659 4.44944L31.0262 5.70627L32.9488 5.15506L32.5884 3.89822L30.6659 4.44944ZM31.9875 6.43066H32.1369V4.43066H31.9875V6.43066ZM32.9866 5.95803C33.1285 5.72926 33.2938 5.55888 33.481 5.43171L32.3573 3.77728C31.9234 4.07198 31.5672 4.45238 31.2873 4.9033L32.9866 5.95803ZM33.4738 5.43654C33.6947 5.28933 33.9408 5.17866 34.2181 5.10613L33.712 3.17121C33.2276 3.2979 32.7764 3.49778 32.3644 3.77244L33.4738 5.43654ZM34.2145 5.10706C34.5175 5.02901 34.832 4.98926 35.1603 4.98926V2.98926C34.6683 2.98926 34.186 3.04912 33.7156 3.17028L34.2145 5.10706ZM43.64 12.8926L42.8576 13.5153L42.8623 13.5212L43.64 12.8926ZM43.6576 5.29004L44.4349 5.91924L44.4369 5.91666L43.6576 5.29004ZM48.5531 4.70117L47.9095 5.46658L47.918 5.4736L48.5531 4.70117ZM49.2211 5.43066L48.3918 5.98952L48.6891 6.43066H49.2211V5.43066ZM49.309 5.43066V6.43066H50.5139L50.2919 5.24638L49.309 5.43066ZM49.1771 4.60449L48.1851 4.73046L48.1862 4.73932L48.1875 4.74815L49.1771 4.60449ZM49.1068 0.324219V-0.675781H48.1068V0.324219H49.1068ZM51.7963 0.324219H52.7963V-0.675781H51.7963V0.324219ZM51.7963 14V15H52.7963V14H51.7963ZM49.7396 14L48.8134 14.3769L49.0669 15H49.7396V14ZM49.2211 12.7256L50.1473 12.3487L49.8938 11.7256H49.2211V12.7256ZM49.1068 12.7256V11.7256H48.5551L48.2609 12.1923L49.1068 12.7256ZM48.4652 13.4639L49.1175 14.2219L49.1189 14.2207L48.4652 13.4639ZM48.808 11.3896L47.9862 10.8199L47.9846 10.8222L48.808 11.3896ZM49.2914 9.41211L50.2912 9.43211L50.2914 9.42211V9.41211H49.2914ZM48.852 6.93359L47.9849 7.43188L47.9874 7.43621L48.852 6.93359ZM45.8285 11.3105L45.0042 11.8767L45.0088 11.8833L45.8285 11.3105ZM46.3207 13.1758C45.5284 13.1758 44.9202 12.8856 44.4178 12.264L42.8623 13.5212C43.7427 14.6105 44.9216 15.1758 46.3207 15.1758V13.1758ZM44.4225 12.2698C43.9339 11.656 43.6117 10.6528 43.6117 9.10449H41.6117C41.6117 10.8843 41.9751 12.4065 42.8576 13.5153L44.4225 12.2698ZM43.6117 9.10449C43.6117 7.53871 43.9397 6.53093 44.4349 5.91924L42.8804 4.66084C41.981 5.7718 41.6117 7.30699 41.6117 9.10449H43.6117ZM44.4369 5.91666C44.942 5.28856 45.565 4.98926 46.391 4.98926V2.98926C44.967 2.98926 43.7678 3.55714 42.8783 4.66342L44.4369 5.91666ZM46.391 4.98926C46.7701 4.98926 47.0645 5.0416 47.291 5.12331L47.9695 3.24193C47.4812 3.06582 46.9494 2.98926 46.391 2.98926V4.98926ZM47.291 5.12331C47.5515 5.21726 47.7528 5.33475 47.9095 5.46653L49.1967 3.93581C48.8378 3.634 48.4239 3.40579 47.9695 3.24193L47.291 5.12331ZM47.918 5.4736C48.1107 5.63206 48.2669 5.80414 48.3918 5.98952L50.0504 4.87181C49.812 4.51813 49.5228 4.20387 49.1882 3.92875L47.918 5.4736ZM49.2211 6.43066H49.309V4.43066H49.2211V6.43066ZM50.2919 5.24638C50.2606 5.07956 50.219 4.82048 50.1668 4.46084L48.1875 4.74815C48.2408 5.11507 48.2871 5.40677 48.3261 5.61495L50.2919 5.24638ZM50.1692 4.47852C50.1278 4.15276 50.1068 3.81695 50.1068 3.4707H48.1068C48.1068 3.8979 48.1327 4.31794 48.1851 4.73046L50.1692 4.47852ZM50.1068 3.4707V0.324219H48.1068V3.4707H50.1068ZM49.1068 1.32422H51.7963V-0.675781H49.1068V1.32422ZM50.7963 0.324219V14H52.7963V0.324219H50.7963ZM51.7963 13H49.7396V15H51.7963V13ZM50.6659 13.6231L50.1473 12.3487L48.2948 13.1025L48.8134 14.3769L50.6659 13.6231ZM49.2211 11.7256H49.1068V13.7256H49.2211V11.7256ZM48.2609 12.1923C48.1472 12.3726 47.9998 12.5445 47.8116 12.707L49.1189 14.2207C49.4463 13.9379 49.7266 13.6176 49.9528 13.2589L48.2609 12.1923ZM47.813 12.7059C47.6628 12.8351 47.4687 12.9508 47.2157 13.0435L47.9042 14.9213C48.3543 14.7563 48.7638 14.5262 49.1175 14.2219L47.813 12.7059ZM47.2157 13.0435C46.9995 13.1228 46.7079 13.1758 46.3207 13.1758V15.1758C46.8827 15.1758 47.4173 15.0998 47.9042 14.9213L47.2157 13.0435ZM47.2611 13.04C48.1831 13.04 49.0788 12.759 49.6314 11.9571L47.9846 10.8222C47.9396 10.8875 47.804 11.04 47.2611 11.04V13.04ZM49.6298 11.9594C50.0977 11.2845 50.272 10.3933 50.2912 9.43211L48.2916 9.39211C48.2757 10.1887 48.1276 10.6159 47.9862 10.8199L49.6298 11.9594ZM50.2914 9.41211V9.12207H48.2914V9.41211H50.2914ZM50.2914 9.12207C50.2914 8.09119 50.1379 7.15584 49.7165 6.43097L47.9874 7.43621C48.1519 7.71916 48.2914 8.24279 48.2914 9.12207H50.2914ZM49.719 6.43531C49.1859 5.50776 48.228 5.16895 47.2172 5.16895V7.16895C47.8001 7.16895 47.9321 7.33989 47.9849 7.43188L49.719 6.43531ZM47.2172 5.16895C46.2763 5.16895 45.5042 5.60389 44.9921 6.38557L46.665 7.48162C46.8208 7.24377 46.9745 7.16895 47.2172 7.16895V5.16895ZM44.9921 6.38557C44.5062 7.12709 44.3275 8.08711 44.3275 9.13965H46.3275C46.3275 8.27031 46.4828 7.75963 46.665 7.48162L44.9921 6.38557ZM44.3275 9.13965C44.3275 10.187 44.5043 11.1487 45.0042 11.8767L46.6528 10.7444C46.4848 10.4997 46.3275 10.0141 46.3275 9.13965H44.3275ZM45.0088 11.8833C45.5438 12.6489 46.3336 13.04 47.2611 13.04V11.04C46.9581 11.04 46.7929 10.9448 46.6482 10.7377L45.0088 11.8833ZM76.9383 4.85059L76.2275 5.55409L76.2348 5.56131L76.9383 4.85059ZM77.7996 14V15H78.7996V14H77.7996ZM75.1102 14H74.1102V15H75.1102V14ZM72.1219 6.89844L72.982 7.40852L72.9846 7.40416L72.1219 6.89844ZM71.6736 14V15H72.6736V14H71.6736ZM68.993 14H67.993V15H68.993V14ZM66.3387 6.51172L66.9972 7.2643L66.9983 7.26334L66.3387 6.51172ZM65.7322 7.61035L64.7627 7.36506L64.7607 7.3734L65.7322 7.61035ZM65.5564 14V15H66.5564V14H65.5564ZM62.8758 14H61.8758V15H62.8758V14ZM62.8758 4.17383V3.17383H61.8758V4.17383H62.8758ZM64.9236 4.17383L65.8849 3.89822L65.6772 3.17383H64.9236V4.17383ZM65.284 5.43066L64.3227 5.70627L64.5304 6.43066H65.284V5.43066ZM65.4334 5.43066V6.43066H66.0063L66.2961 5.93638L65.4334 5.43066ZM66.1805 4.60449L65.6112 3.78227L65.6038 3.78752L66.1805 4.60449ZM70.118 4.34082L69.6922 5.24565L69.6962 5.24754L70.118 4.34082ZM71.2781 5.43066L70.401 5.91098L70.6856 6.43066H71.2781V5.43066ZM71.5154 5.43066V6.43066H72.0908L72.3799 5.93328L71.5154 5.43066ZM72.7547 4.33203L72.3644 3.41133L72.3608 3.41289L72.7547 4.33203ZM74.4158 4.98926C75.3653 4.98926 75.9089 5.23214 76.2276 5.55406L77.649 4.14711C76.8309 3.32059 75.6929 2.98926 74.4158 2.98926V4.98926ZM76.2348 5.56131C76.5362 5.85963 76.7996 6.45453 76.7996 7.59277H78.7996C78.7996 6.21149 78.4888 4.97826 77.6417 4.13986L76.2348 5.56131ZM76.7996 7.59277V14H78.7996V7.59277H76.7996ZM77.7996 13H75.1102V15H77.7996V13ZM76.1102 14V8.26074H74.1102V14H76.1102ZM76.1102 8.26074C76.1102 7.47297 75.9808 6.70881 75.5798 6.11209L73.9199 7.22776C73.9992 7.34588 74.1102 7.64226 74.1102 8.26074H76.1102ZM75.5798 6.11209C75.12 5.42801 74.405 5.13379 73.6336 5.13379V7.13379C73.7681 7.13379 73.8332 7.15751 73.8576 7.16923C73.876 7.17805 73.8946 7.1902 73.9199 7.22776L75.5798 6.11209ZM73.6336 5.13379C72.6532 5.13379 71.776 5.511 71.2592 6.39272L72.9846 7.40416C73.0654 7.26634 73.196 7.13379 73.6336 7.13379V5.13379ZM71.2617 6.38836C70.8315 7.11385 70.6736 8.04526 70.6736 9.06934H72.6736C72.6736 8.20669 72.8146 7.69083 72.982 7.40851L71.2617 6.38836ZM70.6736 9.06934V14H72.6736V9.06934H70.6736ZM71.6736 13H68.993V15H71.6736V13ZM69.993 14V8.26074H67.993V14H69.993ZM69.993 8.26074C69.993 7.72456 69.9336 7.21724 69.7834 6.76678L67.8861 7.39924C67.9469 7.58159 67.993 7.85943 67.993 8.26074H69.993ZM69.7834 6.76678C69.6284 6.30155 69.3625 5.87102 68.9408 5.5633L67.7619 7.17888C67.7738 7.18757 67.8302 7.23165 67.8861 7.39924L69.7834 6.76678ZM68.9408 5.5633C68.5121 5.25041 68.0113 5.13379 67.5164 5.13379V7.13379C67.7012 7.13379 67.7571 7.17537 67.7619 7.17888L68.9408 5.5633ZM67.5164 5.13379C66.851 5.13379 66.1982 5.3045 65.6791 5.76009L66.9983 7.26334C67.0533 7.21503 67.1858 7.13379 67.5164 7.13379V5.13379ZM65.6802 5.75914C65.2019 6.17765 64.9189 6.74811 64.7628 7.36507L66.7017 7.85563C66.7917 7.49994 66.913 7.33797 66.9972 7.2643L65.6802 5.75914ZM64.7607 7.3734C64.6186 7.95583 64.5564 8.62963 64.5564 9.37695H66.5564C66.5564 8.72975 66.6114 8.22581 66.7037 7.84731L64.7607 7.3734ZM64.5564 9.37695V14H66.5564V9.37695H64.5564ZM65.5564 13H62.8758V15H65.5564V13ZM63.8758 14V4.17383H61.8758V14H63.8758ZM62.8758 5.17383H64.9236V3.17383H62.8758V5.17383ZM63.9624 4.44944L64.3227 5.70627L66.2453 5.15506L65.8849 3.89822L63.9624 4.44944ZM65.284 6.43066H65.4334V4.43066H65.284V6.43066ZM66.2961 5.93638C66.4289 5.70988 66.5835 5.54403 66.7571 5.42146L65.6038 3.78752C65.1798 4.08683 64.8364 4.47176 64.5707 4.92494L66.2961 5.93638ZM66.7497 5.42668C66.96 5.28109 67.1906 5.17333 67.4469 5.10308L66.918 3.17427C66.4476 3.30323 66.0103 3.50602 65.6113 3.7823L66.7497 5.42668ZM67.4469 5.10308C67.7244 5.02698 68.0046 4.98926 68.2898 4.98926V2.98926C67.8251 2.98926 67.367 3.05114 66.918 3.17427L67.4469 5.10308ZM68.2898 4.98926C68.907 4.98926 69.3618 5.09019 69.6922 5.24564L70.5438 3.436C69.878 3.1227 69.1141 2.98926 68.2898 2.98926V4.98926ZM69.6962 5.24754C70.0047 5.39104 70.2329 5.60389 70.401 5.91098L72.1552 4.95035C71.7843 4.27307 71.239 3.75935 70.5397 3.4341L69.6962 5.24754ZM71.2781 6.43066H71.5154V4.43066H71.2781V6.43066ZM72.3799 5.93328C72.5654 5.61422 72.814 5.39459 73.1486 5.25118L72.3608 3.41289C71.629 3.7265 71.0514 4.23929 70.6509 4.92804L72.3799 5.93328ZM73.145 5.25272C73.5644 5.07493 73.9856 4.98926 74.4158 4.98926V2.98926C73.7093 2.98926 73.0231 3.1321 72.3644 3.41134L73.145 5.25272ZM88.7578 4.5166L88.2856 5.3981L88.2917 5.40135L88.7578 4.5166ZM90.8145 9.75488V10.7549H91.8145V9.75488H90.8145ZM84.4775 9.75488V8.75488H83.438L83.4783 9.79361L84.4775 9.75488ZM85.1543 11.5391L84.4375 12.2365L84.4472 12.2462L85.1543 11.5391ZM90.2607 11.4072H91.2607V9.83501L89.8368 10.5015L90.2607 11.4072ZM90.2607 13.4814L90.7036 14.378L91.2607 14.1028V13.4814H90.2607ZM88.7314 14.0088L88.5271 13.0299L88.5249 13.0304L88.7314 14.0088ZM84.1875 13.6309L83.7543 14.5322L83.757 14.5335L84.1875 13.6309ZM82.4033 11.9697L81.5363 12.4681L81.5393 12.4732L82.4033 11.9697ZM82.3418 6.29199L81.4515 5.83664L81.4501 5.8393L82.3418 6.29199ZM83.9766 4.56934L84.4559 5.44697L84.4616 5.44384L83.9766 4.56934ZM85.1279 6.39746L84.4331 5.67824L84.427 5.68423L85.1279 6.39746ZM84.5391 7.9707L83.5418 7.89713L83.4626 8.9707H84.5391V7.9707ZM88.3008 7.9707V8.9707H89.3156L89.3007 7.956L88.3008 7.9707ZM88.0811 6.90723L87.1637 7.30532L87.1668 7.31255L87.1701 7.31973L88.0811 6.90723ZM87.4658 6.16895L86.9069 6.99825L86.9152 7.00372L87.4658 6.16895ZM86.4111 4.98926C87.1904 4.98926 87.8032 5.13966 88.2856 5.39808L89.23 3.63512C88.3999 3.19042 87.4482 2.98926 86.4111 2.98926V4.98926ZM88.2917 5.40135C88.7698 5.65316 89.1337 6.01317 89.3983 6.50335L91.1583 5.55329C90.7081 4.71925 90.0584 4.07145 89.2239 3.63185L88.2917 5.40135ZM89.3983 6.50335C89.6586 6.98539 89.8145 7.6212 89.8145 8.4541H91.8145C91.8145 7.37685 91.6129 6.39546 91.1583 5.55329L89.3983 6.50335ZM89.8145 8.4541V9.75488H91.8145V8.4541H89.8145ZM90.8145 8.75488H84.4775V10.7549H90.8145V8.75488ZM83.4783 9.79361C83.5147 10.7321 83.8033 11.5845 84.4376 12.2364L85.871 10.8417C85.6616 10.6265 85.499 10.2894 85.4768 9.71615L83.4783 9.79361ZM84.4472 12.2462C85.1067 12.9057 85.9785 13.1807 86.9297 13.1807V11.1807C86.3691 11.1807 86.0574 11.0279 85.8614 10.832L84.4472 12.2462ZM86.9297 13.1807C87.6244 13.1807 88.2805 13.1093 88.8923 12.9581L88.4124 11.0165C87.9812 11.1231 87.4889 11.1807 86.9297 11.1807V13.1807ZM88.8923 12.9581C89.4848 12.8116 90.0824 12.5948 90.6847 12.3129L89.8368 10.5015C89.3375 10.7353 88.8629 10.9052 88.4124 11.0165L88.8923 12.9581ZM89.2607 11.4072V13.4814H91.2607V11.4072H89.2607ZM89.8179 12.5849C89.4076 12.7875 88.978 12.9358 88.5271 13.0299L88.9358 14.9877C89.5513 14.8592 90.1413 14.6558 90.7036 14.378L89.8179 12.5849ZM88.5249 13.0304C88.0865 13.1229 87.5185 13.1758 86.8066 13.1758V15.1758C87.6065 15.1758 88.3217 15.1173 88.938 14.9872L88.5249 13.0304ZM86.8066 13.1758C85.9465 13.1758 85.2246 13.0176 84.618 12.7283L83.757 14.5335C84.6738 14.9707 85.698 15.1758 86.8066 15.1758V13.1758ZM84.6207 12.7296C84.0501 12.4553 83.6032 12.0427 83.2673 11.4663L81.5393 12.4732C82.0706 13.3851 82.8132 14.0799 83.7543 14.5322L84.6207 12.7296ZM83.2703 11.4714C82.9531 10.9196 82.7617 10.1671 82.7617 9.15723H80.7617C80.7617 10.4091 80.998 11.5316 81.5363 12.4681L83.2703 11.4714ZM82.7617 9.15723C82.7617 8.11441 82.9382 7.32634 83.2335 6.74468L81.4501 5.8393C80.972 6.78109 80.7617 7.90317 80.7617 9.15723H82.7617ZM83.2321 6.74734C83.5414 6.14264 83.95 5.72327 84.4559 5.44695L83.4972 3.69172C82.6085 4.17712 81.9274 4.90619 81.4515 5.83664L83.2321 6.74734ZM84.4616 5.44384C84.9881 5.15183 85.6275 4.98926 86.4111 4.98926V2.98926C85.3432 2.98926 84.3596 3.2134 83.4915 3.69483L84.4616 5.44384ZM86.4287 4.89648C85.6721 4.89648 84.9819 5.14805 84.4331 5.67827L85.8227 7.11665C85.9653 6.9789 86.1423 6.89648 86.4287 6.89648V4.89648ZM84.427 5.68423C83.8449 6.25633 83.6036 7.05844 83.5418 7.89713L85.5364 8.04427C85.58 7.45328 85.7313 7.20656 85.8289 7.11069L84.427 5.68423ZM84.5391 8.9707H88.3008V6.9707H84.5391V8.9707ZM89.3007 7.956C89.2931 7.44319 89.198 6.94968 88.992 6.49472L87.1701 7.31973C87.2453 7.48587 87.2967 7.70134 87.3009 7.98541L89.3007 7.956ZM88.9984 6.50913C88.7885 6.02545 88.4583 5.62561 88.0164 5.33417L86.9152 7.00372C87.0241 7.07556 87.1041 7.16791 87.1637 7.30532L88.9984 6.50913ZM88.0247 5.33968C87.5472 5.01791 86.991 4.89648 86.4287 4.89648V6.89648C86.7102 6.89648 86.8454 6.9567 86.907 6.99821L88.0247 5.33968ZM101.175 12.7783L100.349 12.214L100.348 12.2163L101.175 12.7783ZM99.7775 13.8242L100.131 14.7599L100.138 14.7569L99.7775 13.8242ZM95.6906 14.0439L95.5128 15.028L95.5148 15.0284L95.6906 14.0439ZM94.2141 13.6045H93.2141V14.2742L93.8333 14.5292L94.2141 13.6045ZM94.2141 11.3896L94.6248 10.4779L93.2141 9.84229V11.3896H94.2141ZM95.9279 11.9873L95.6766 12.9553L95.6876 12.958L95.9279 11.9873ZM98.6613 11.9873L99.226 12.8126L99.2305 12.8095L98.6613 11.9873ZM98.8635 10.9326L98.0259 11.4789L98.0398 11.5002L98.0547 11.5208L98.8635 10.9326ZM98.2834 10.4844L97.7891 11.3537L97.7956 11.3574L97.8021 11.361L98.2834 10.4844ZM96.8771 9.8252L97.266 8.90388L97.2636 8.9029L96.8771 9.8252ZM95.3566 9.04297L94.7991 9.87313L94.8048 9.8769L95.3566 9.04297ZM94.4777 8.11133L93.5891 8.56997L93.5936 8.5786L93.5982 8.58715L94.4777 8.11133ZM95.2512 4.68359L95.7962 5.52204L95.7979 5.52093L95.2512 4.68359ZM99.8303 4.17383L99.6122 5.14977L99.6144 5.15026L99.8303 4.17383ZM101.544 4.7627L102.467 5.1485L102.839 4.25771L101.962 3.8542L101.544 4.7627ZM100.736 6.69629L100.338 7.61371L101.267 8.0169L101.658 7.0821L100.736 6.69629ZM99.3557 6.17773L99.0552 7.13152L99.0589 7.13267L99.3557 6.17773ZM97.009 7.03906L96.2317 7.66826L96.2406 7.67918L96.2497 7.68985L97.009 7.03906ZM97.6066 7.45215L97.1453 8.33937L97.1558 8.34484L97.1665 8.35007L97.6066 7.45215ZM98.9162 8.02344L99.296 7.09835L99.2941 7.09759L98.9162 8.02344ZM100.366 8.74414L99.843 9.59626L99.8519 9.60163L100.366 8.74414ZM101.316 9.66699L100.459 10.1835L100.463 10.1896L101.316 9.66699ZM100.65 11.082C100.65 11.5879 100.532 11.9471 100.349 12.214L102.001 13.3426C102.451 12.6838 102.65 11.9121 102.65 11.082H100.65ZM100.348 12.2163C100.173 12.4733 99.8879 12.7093 99.4168 12.8916L100.138 14.7569C100.909 14.4587 101.556 13.9974 102.002 13.3403L100.348 12.2163ZM99.4245 12.8886C98.9512 13.0672 98.3065 13.1758 97.4572 13.1758V15.1758C98.4595 15.1758 99.3617 15.05 100.131 14.7598L99.4245 12.8886ZM97.4572 13.1758C96.8106 13.1758 96.2837 13.134 95.8664 13.0595L95.5148 15.0284C96.0819 15.1296 96.7327 15.1758 97.4572 15.1758V13.1758ZM95.8685 13.0599C95.4576 12.9856 95.0333 12.8604 94.5948 12.6798L93.8333 14.5292C94.3909 14.7588 94.951 14.9265 95.5128 15.028L95.8685 13.0599ZM95.2141 13.6045V11.3896H93.2141V13.6045H95.2141ZM93.8033 12.3014C94.3917 12.5665 95.0167 12.7839 95.6766 12.9552L96.1792 11.0194C95.6204 10.8743 95.1028 10.6933 94.6248 10.4779L93.8033 12.3014ZM95.6876 12.958C96.3547 13.1232 96.9777 13.2158 97.5451 13.2158V11.2158C97.1868 11.2158 96.7316 11.1561 96.1683 11.0166L95.6876 12.958ZM97.5451 13.2158C98.1098 13.2158 98.7421 13.1437 99.226 12.8126L98.0966 11.162C98.1303 11.139 98.1197 11.1575 98.0147 11.179C97.9139 11.1996 97.7615 11.2158 97.5451 11.2158V13.2158ZM99.2305 12.8095C99.6963 12.4871 100.004 11.9899 100.004 11.3721H98.0041C98.0041 11.3406 98.013 11.2853 98.0448 11.2281C98.0747 11.1746 98.1036 11.1572 98.0921 11.1651L99.2305 12.8095ZM100.004 11.3721C100.004 11.0033 99.8941 10.6496 99.6722 10.3444L98.0547 11.5208C98.0412 11.5022 98.0267 11.4759 98.0165 11.4439C98.0064 11.4123 98.0041 11.3866 98.0041 11.3721H100.004ZM99.7011 10.3863C99.4682 10.0293 99.0805 9.7812 98.7647 9.6078L97.8021 11.361C97.9223 11.4269 97.998 11.4775 98.0411 11.5108C98.0618 11.5268 98.0689 11.5342 98.067 11.5322C98.0656 11.5308 98.0484 11.5134 98.0259 11.4789L99.7011 10.3863ZM98.7777 9.61508C98.4256 9.41487 97.9122 9.17662 97.266 8.90388L96.4883 10.7465C97.1194 11.0128 97.5435 11.214 97.7891 11.3537L98.7777 9.61508ZM97.2636 8.9029C96.6853 8.66057 96.2388 8.42758 95.9085 8.20904L94.8048 9.8769C95.2714 10.1857 95.8385 10.4742 96.4907 10.7475L97.2636 8.9029ZM95.9142 8.21283C95.634 8.02463 95.4618 7.82882 95.3573 7.63551L93.5982 8.58715C93.8803 9.10868 94.2941 9.53397 94.7991 9.87311L95.9142 8.21283ZM95.3664 7.65269C95.2736 7.47305 95.1965 7.18339 95.1965 6.73145H93.1965C93.1965 7.39278 93.3068 8.02305 93.5891 8.56997L95.3664 7.65269ZM95.1965 6.73145C95.1965 6.12827 95.4038 5.77709 95.7962 5.52204L94.7062 3.84515C93.6923 4.50416 93.1965 5.51821 93.1965 6.73145H95.1965ZM95.7979 5.52093C96.2916 5.19857 97.0263 4.98926 98.09 4.98926V2.98926C96.7866 2.98926 95.6287 3.24283 94.7045 3.84626L95.7979 5.52093ZM98.09 4.98926C98.6319 4.98926 99.1385 5.04393 99.6122 5.14977L100.048 3.19789C99.4205 3.05764 98.767 2.98926 98.09 2.98926V4.98926ZM99.6144 5.15026C100.093 5.25607 100.597 5.42762 101.126 5.67119L101.962 3.8542C101.32 3.55871 100.681 3.33768 100.046 3.1974L99.6144 5.15026ZM100.622 4.37689L99.813 6.31048L101.658 7.0821L102.467 5.1485L100.622 4.37689ZM101.133 5.77887C100.619 5.55592 100.126 5.36983 99.6525 5.2228L99.0589 7.13267C99.453 7.25517 99.879 7.41479 100.338 7.61371L101.133 5.77887ZM99.6562 5.22395C99.1319 5.05878 98.5941 4.97559 98.0461 4.97559V6.97559C98.3887 6.97559 98.7239 7.02716 99.0552 7.13151L99.6562 5.22395ZM98.0461 4.97559C97.5949 4.97559 97.1043 5.03095 96.6905 5.25L97.6263 7.01758C97.6095 7.02648 97.6275 7.01347 97.7052 6.99962C97.7808 6.98615 97.8919 6.97559 98.0461 6.97559V4.97559ZM96.6905 5.25C96.4638 5.37004 96.2433 5.54967 96.0837 5.80792C95.9227 6.06828 95.8596 6.35046 95.8596 6.61719H97.8596C97.8596 6.66712 97.8462 6.76033 97.7849 6.85956C97.7248 6.95668 97.6538 7.00301 97.6263 7.01758L96.6905 5.25ZM95.8596 6.61719C95.8596 7.00462 95.9881 7.36732 96.2317 7.66826L97.7862 6.40986C97.8035 6.43124 97.8242 6.46424 97.8395 6.50746C97.8549 6.55069 97.8596 6.58948 97.8596 6.61719H95.8596ZM96.2497 7.68985C96.4868 7.9665 96.8319 8.17642 97.1453 8.33937L98.068 6.56493C97.9462 6.50163 97.8615 6.45033 97.8061 6.41199C97.746 6.37045 97.7448 6.36098 97.7682 6.38827L96.2497 7.68985ZM97.1665 8.35007C97.4962 8.5117 97.9577 8.71228 98.5383 8.94929L99.2941 7.09759C98.7263 6.86584 98.3147 6.68556 98.0468 6.55423L97.1665 8.35007ZM98.5364 8.94852C99.055 9.16142 99.4883 9.37836 99.843 9.59622L100.89 7.89206C100.424 7.60601 99.8907 7.34249 99.296 7.09836L98.5364 8.94852ZM99.8519 9.60163C100.138 9.77305 100.33 9.96903 100.459 10.1835L102.172 9.1505C101.856 8.62668 101.416 8.20742 100.881 7.88665L99.8519 9.60163ZM100.463 10.1896C100.56 10.3485 100.65 10.6221 100.65 11.082H102.65C102.65 10.3818 102.516 9.71202 102.168 9.14443L100.463 10.1896ZM111.922 12.7783L111.097 12.214L111.095 12.2163L111.922 12.7783ZM110.525 13.8242L110.878 14.7599L110.886 14.7569L110.525 13.8242ZM106.438 14.0439L106.26 15.028L106.262 15.0284L106.438 14.0439ZM104.961 13.6045H103.961V14.2742L104.581 14.5292L104.961 13.6045ZM104.961 11.3896L105.372 10.4779L103.961 9.84229V11.3896H104.961ZM106.675 11.9873L106.424 12.9553L106.435 12.958L106.675 11.9873ZM109.409 11.9873L109.973 12.8126L109.978 12.8095L109.409 11.9873ZM109.611 10.9326L108.773 11.4789L108.787 11.5002L108.802 11.5208L109.611 10.9326ZM109.031 10.4844L108.536 11.3537L108.543 11.3574L108.549 11.361L109.031 10.4844ZM107.624 9.8252L108.013 8.90388L108.011 8.9029L107.624 9.8252ZM106.104 9.04297L105.546 9.87313L105.552 9.8769L106.104 9.04297ZM105.225 8.11133L104.336 8.56997L104.341 8.5786L104.345 8.58715L105.225 8.11133ZM105.998 4.68359L106.543 5.52204L106.545 5.52093L105.998 4.68359ZM110.578 4.17383L110.36 5.14977L110.362 5.15026L110.578 4.17383ZM112.291 4.7627L113.214 5.1485L113.586 4.25771L112.709 3.8542L112.291 4.7627ZM111.483 6.69629L111.085 7.61371L112.014 8.0169L112.405 7.0821L111.483 6.69629ZM110.103 6.17773L109.802 7.13152L109.806 7.13267L110.103 6.17773ZM107.756 7.03906L106.979 7.66826L106.988 7.67918L106.997 7.68985L107.756 7.03906ZM108.354 7.45215L107.893 8.33937L107.903 8.34484L107.914 8.35007L108.354 7.45215ZM109.663 8.02344L110.043 7.09835L110.041 7.09759L109.663 8.02344ZM111.114 8.74414L110.59 9.59626L110.599 9.60163L111.114 8.74414ZM112.063 9.66699L111.207 10.1835L111.21 10.1896L112.063 9.66699ZM111.397 11.082C111.397 11.5879 111.279 11.9471 111.097 12.214L112.748 13.3426C113.198 12.6838 113.397 11.9121 113.397 11.082H111.397ZM111.095 12.2163C110.921 12.4733 110.635 12.7093 110.164 12.8916L110.886 14.7569C111.657 14.4587 112.303 13.9974 112.749 13.3403L111.095 12.2163ZM110.172 12.8886C109.698 13.0672 109.054 13.1758 108.204 13.1758V15.1758C109.207 15.1758 110.109 15.05 110.878 14.7598L110.172 12.8886ZM108.204 13.1758C107.558 13.1758 107.031 13.134 106.614 13.0595L106.262 15.0284C106.829 15.1296 107.48 15.1758 108.204 15.1758V13.1758ZM106.616 13.0599C106.205 12.9856 105.781 12.8604 105.342 12.6798L104.581 14.5292C105.138 14.7588 105.698 14.9265 106.26 15.028L106.616 13.0599ZM105.961 13.6045V11.3896H103.961V13.6045H105.961ZM104.551 12.3014C105.139 12.5665 105.764 12.7839 106.424 12.9552L106.926 11.0194C106.368 10.8743 105.85 10.6933 105.372 10.4779L104.551 12.3014ZM106.435 12.958C107.102 13.1232 107.725 13.2158 108.292 13.2158V11.2158C107.934 11.2158 107.479 11.1561 106.916 11.0166L106.435 12.958ZM108.292 13.2158C108.857 13.2158 109.489 13.1437 109.973 12.8126L108.844 11.162C108.878 11.139 108.867 11.1575 108.762 11.179C108.661 11.1996 108.509 11.2158 108.292 11.2158V13.2158ZM109.978 12.8095C110.444 12.4871 110.751 11.9899 110.751 11.3721H108.751C108.751 11.3406 108.76 11.2853 108.792 11.2281C108.822 11.1746 108.851 11.1572 108.839 11.1651L109.978 12.8095ZM110.751 11.3721C110.751 11.0033 110.641 10.6496 110.419 10.3444L108.802 11.5208C108.788 11.5022 108.774 11.4759 108.764 11.4439C108.754 11.4123 108.751 11.3866 108.751 11.3721H110.751ZM110.448 10.3863C110.215 10.0293 109.828 9.7812 109.512 9.6078L108.549 11.361C108.67 11.4269 108.745 11.4775 108.788 11.5108C108.809 11.5268 108.816 11.5342 108.814 11.5322C108.813 11.5308 108.796 11.5134 108.773 11.4789L110.448 10.3863ZM109.525 9.61508C109.173 9.41487 108.66 9.17662 108.013 8.90388L107.236 10.7465C107.867 11.0128 108.291 11.214 108.536 11.3537L109.525 9.61508ZM108.011 8.9029C107.433 8.66057 106.986 8.42758 106.656 8.20904L105.552 9.8769C106.019 10.1857 106.586 10.4742 107.238 10.7475L108.011 8.9029ZM106.661 8.21283C106.381 8.02463 106.209 7.82882 106.105 7.63551L104.345 8.58715C104.628 9.10868 105.041 9.53397 105.546 9.87311L106.661 8.21283ZM106.114 7.65269C106.021 7.47305 105.944 7.18339 105.944 6.73145H103.944C103.944 7.39278 104.054 8.02305 104.336 8.56997L106.114 7.65269ZM105.944 6.73145C105.944 6.12827 106.151 5.77709 106.543 5.52204L105.453 3.84515C104.44 4.50416 103.944 5.51821 103.944 6.73145H105.944ZM106.545 5.52093C107.039 5.19857 107.774 4.98926 108.837 4.98926V2.98926C107.534 2.98926 106.376 3.24283 105.452 3.84626L106.545 5.52093ZM108.837 4.98926C109.379 4.98926 109.886 5.04393 110.36 5.14977L110.796 3.19789C110.168 3.05764 109.514 2.98926 108.837 2.98926V4.98926ZM110.362 5.15026C110.84 5.25607 111.344 5.42762 111.873 5.67119L112.709 3.8542C112.067 3.55871 111.428 3.33768 110.793 3.1974L110.362 5.15026ZM111.369 4.37689L110.56 6.31048L112.405 7.0821L113.214 5.1485L111.369 4.37689ZM111.881 5.77887C111.367 5.55592 110.873 5.36983 110.4 5.2228L109.806 7.13267C110.2 7.25517 110.626 7.41479 111.085 7.61371L111.881 5.77887ZM110.403 5.22395C109.879 5.05878 109.341 4.97559 108.793 4.97559V6.97559C109.136 6.97559 109.471 7.02716 109.802 7.13151L110.403 5.22395ZM108.793 4.97559C108.342 4.97559 107.852 5.03095 107.438 5.25L108.374 7.01758C108.357 7.02648 108.375 7.01347 108.452 6.99962C108.528 6.98615 108.639 6.97559 108.793 6.97559V4.97559ZM107.438 5.25C107.211 5.37004 106.991 5.54967 106.831 5.80792C106.67 6.06828 106.607 6.35046 106.607 6.61719H108.607C108.607 6.66712 108.593 6.76033 108.532 6.85956C108.472 6.95668 108.401 7.00301 108.374 7.01758L107.438 5.25ZM106.607 6.61719C106.607 7.00462 106.735 7.36732 106.979 7.66826L108.533 6.40986C108.551 6.43124 108.572 6.46424 108.587 6.50746C108.602 6.55069 108.607 6.58948 108.607 6.61719H106.607ZM106.997 7.68985C107.234 7.9665 107.579 8.17642 107.893 8.33937L108.815 6.56493C108.694 6.50163 108.609 6.45033 108.553 6.41199C108.493 6.37045 108.492 6.36098 108.516 6.38827L106.997 7.68985ZM107.914 8.35007C108.243 8.5117 108.705 8.71228 109.286 8.94929L110.041 7.09759C109.474 6.86584 109.062 6.68556 108.794 6.55423L107.914 8.35007ZM109.284 8.94852C109.802 9.16142 110.236 9.37836 110.59 9.59622L111.637 7.89206C111.171 7.60601 110.638 7.34249 110.043 7.09836L109.284 8.94852ZM110.599 9.60163C110.885 9.77305 111.077 9.96903 111.207 10.1835L112.919 9.1505C112.603 8.62668 112.163 8.20742 111.628 7.88665L110.599 9.60163ZM111.21 10.1896C111.308 10.3485 111.397 10.6221 111.397 11.082H113.397C113.397 10.3818 113.263 9.71202 112.915 9.14443L111.21 10.1896ZM124.401 14V15H125.401V14H124.401ZM122.529 14L121.597 14.3619L121.844 15H122.529V14ZM122.01 12.6641L122.943 12.3022L122.695 11.6641H122.01V12.6641ZM121.94 12.6641V11.6641H121.459L121.159 12.0394L121.94 12.6641ZM117.115 13.8418L116.677 14.7408L116.681 14.743L117.115 13.8418ZM116.034 12.8223L115.165 13.3172L115.168 13.322L116.034 12.8223ZM116.737 8.76172L117.295 9.59173L117.299 9.58865L116.737 8.76172ZM120.033 7.93555L120.002 6.93601L119.997 6.93619L120.033 7.93555ZM121.738 7.88281L121.769 8.88233L122.738 8.85236V7.88281H121.738ZM117.44 6.66992L116.542 7.11015L116.968 7.97796L117.849 7.58228L117.44 6.66992ZM116.552 4.85938L116.085 3.9751L115.227 4.42827L115.654 5.2996L116.552 4.85938ZM118.301 4.20898L118.065 3.23731L118.063 3.23781L118.301 4.20898ZM121.738 9.44727H122.738V8.41279L121.704 8.44784L121.738 9.44727ZM120.701 9.48242L120.728 10.4821L120.735 10.4818L120.701 9.48242ZM118.89 9.94824L118.245 9.18433L118.238 9.18993L118.89 9.94824ZM118.75 11.9609L118.159 12.768L118.166 12.7727L118.172 12.7774L118.75 11.9609ZM121.14 11.7061L120.491 10.9452L120.486 10.95L121.14 11.7061ZM120.314 4.97168C121.503 4.97168 122.254 5.23246 122.714 5.60754L123.979 4.05848C123.032 3.28512 121.762 2.97168 120.314 2.97168V4.97168ZM122.714 5.60754C123.12 5.93927 123.401 6.48615 123.401 7.45215H125.401C125.401 6.07439 124.979 4.87519 123.979 4.05848L122.714 5.60754ZM123.401 7.45215V14H125.401V7.45215H123.401ZM124.401 13H122.529V15H124.401V13ZM123.461 13.6381L122.943 12.3022L121.078 13.0259L121.597 14.3619L123.461 13.6381ZM122.01 11.6641H121.94V13.6641H122.01V11.6641ZM121.159 12.0394C120.918 12.3405 120.689 12.5659 120.474 12.7292L121.684 14.3216C122.055 14.0396 122.399 13.6908 122.721 13.2888L121.159 12.0394ZM120.474 12.7292C120.289 12.8695 120.069 12.9797 119.801 13.0538L120.335 14.9813C120.829 14.8445 121.282 14.6266 121.684 14.3216L120.474 12.7292ZM119.801 13.0538C119.533 13.1281 119.165 13.1758 118.679 13.1758V15.1758C119.283 15.1758 119.841 15.118 120.335 14.9813L119.801 13.0538ZM118.679 13.1758C118.23 13.1758 117.859 13.0903 117.548 12.9406L116.681 14.743C117.296 15.0386 117.969 15.1758 118.679 15.1758V13.1758ZM117.553 12.9428C117.282 12.811 117.068 12.6137 116.9 12.3225L115.168 13.322C115.527 13.9449 116.033 14.4273 116.677 14.7408L117.553 12.9428ZM116.903 12.3273C116.749 12.0571 116.638 11.6554 116.638 11.0645H114.638C114.638 11.8915 114.791 12.6617 115.165 13.3172L116.903 12.3273ZM116.638 11.0645C116.638 10.2847 116.892 9.86231 117.295 9.59172L116.179 7.93172C115.117 8.64551 114.638 9.75828 114.638 11.0645H116.638ZM117.299 9.58865C117.805 9.245 118.682 8.98484 120.069 8.9349L119.997 6.93619C118.454 6.99173 117.134 7.28235 116.175 7.93479L117.299 9.58865ZM120.064 8.93507L121.769 8.88233L121.707 6.88329L120.002 6.93602L120.064 8.93507ZM122.738 7.88281V7.45215H120.738V7.88281H122.738ZM122.738 7.45215C122.738 6.77661 122.56 6.07168 121.999 5.57185L120.668 7.06487C120.668 7.06505 120.67 7.06638 120.674 7.07171C120.677 7.07746 120.685 7.09141 120.695 7.11786C120.715 7.17323 120.738 7.27778 120.738 7.45215H122.738ZM121.999 5.57185C121.493 5.12073 120.852 4.95801 120.209 4.95801V6.95801C120.526 6.95801 120.635 7.03552 120.668 7.06487L121.999 5.57185ZM120.209 4.95801C119.638 4.95801 119.077 5.03925 118.528 5.20099L119.094 7.11933C119.46 7.01153 119.83 6.95801 120.209 6.95801V4.95801ZM118.528 5.20099C118.026 5.34912 117.527 5.53499 117.031 5.75756L117.849 7.58228C118.267 7.3947 118.682 7.24072 119.094 7.11933L118.528 5.20099ZM118.338 6.2297L117.45 4.41915L115.654 5.2996L116.542 7.11015L118.338 6.2297ZM117.019 5.74365C117.46 5.51089 117.965 5.32125 118.54 5.18016L118.063 3.23781C117.349 3.41313 116.688 3.65708 116.085 3.9751L117.019 5.74365ZM118.538 5.18065C119.108 5.04188 119.7 4.97168 120.314 4.97168V2.97168C119.546 2.97168 118.795 3.05968 118.065 3.23732L118.538 5.18065ZM121.704 8.44784L120.667 8.483L120.735 10.4818L121.772 10.4467L121.704 8.44784ZM120.674 8.48279C119.764 8.50739 118.86 8.66488 118.245 9.18436L119.536 10.7121C119.6 10.6574 119.904 10.5043 120.728 10.4821L120.674 8.48279ZM118.238 9.18993C117.668 9.68047 117.389 10.3432 117.389 11.082H119.389C119.389 10.8834 119.445 10.7902 119.542 10.7066L118.238 9.18993ZM117.389 11.082C117.389 11.6814 117.572 12.3385 118.159 12.768L119.34 11.1539C119.356 11.1655 119.372 11.1806 119.385 11.1977C119.398 11.2144 119.403 11.2268 119.405 11.23C119.406 11.2337 119.389 11.1937 119.389 11.082H117.389ZM118.172 12.7774C118.627 13.0992 119.161 13.2158 119.69 13.2158V11.2158C119.446 11.2158 119.353 11.1625 119.327 11.1445L118.172 12.7774ZM119.69 13.2158C120.477 13.2158 121.201 12.9763 121.795 12.4621L120.486 10.95C120.295 11.1155 120.051 11.2158 119.69 11.2158V13.2158ZM121.789 12.4669C122.455 11.8994 122.738 11.1121 122.738 10.2559H120.738C120.738 10.6535 120.623 10.833 120.491 10.9452L121.789 12.4669ZM122.738 10.2559V9.44727H120.738V10.2559H122.738ZM128.697 17.6035L129.249 16.7694L129.247 16.7683L128.697 17.6035ZM128.17 14.1143L127.436 13.4346L128.17 14.1143ZM129.796 13.2617L130.027 14.2346L132.984 13.5317L130.187 12.3416L129.796 13.2617ZM129.075 12.6904L128.279 13.296L128.286 13.3044L129.075 12.6904ZM129.093 10.9062L129.843 11.5673L129.851 11.5585L129.093 10.9062ZM130.033 10.168L130.538 11.0309L132.242 10.0328L130.429 9.24991L130.033 10.168ZM128.803 9.0957L127.948 9.6147L127.952 9.62206L128.803 9.0957ZM128.82 5.53613L127.973 5.00436L127.972 5.00703L128.82 5.53613ZM130.191 4.38477L129.791 3.4684L129.788 3.46985L130.191 4.38477ZM133.68 4.10352L133.535 5.09288L133.539 5.09347L133.68 4.10352ZM134.094 4.17383L133.851 5.14397L133.97 5.17383H134.094V4.17383ZM137.521 4.17383H138.521V3.17383H137.521V4.17383ZM137.521 5.53613L137.77 6.50463L138.521 6.31152V5.53613H137.521ZM135.983 5.93164L135.734 4.96315L134.388 5.3094L135.144 6.47583L135.983 5.93164ZM135.298 9.87793L135.922 10.6588L135.923 10.6582L135.298 9.87793ZM132.239 10.7568L132.183 11.7552L132.211 11.7568H132.239V10.7568ZM131.36 10.6865L131.466 9.69213L131.063 9.64927L130.744 9.89902L131.36 10.6865ZM131.105 11.7148L130.465 12.4831L130.488 12.5022L130.512 12.5199L131.105 11.7148ZM131.597 11.9082L131.386 12.8856L131.401 12.8889L131.416 12.8917L131.597 11.9082ZM136.554 12.6641L135.919 13.4362L135.923 13.4394L136.554 12.6641ZM135.966 17.375L135.416 16.5398L135.413 16.5414L135.966 17.375ZM133.601 16.3906L133.356 15.4212L133.349 15.4231L133.341 15.425L133.601 16.3906ZM134.665 15.8809L134.004 15.1304L133.994 15.1393L134.665 15.8809ZM134.164 14.2109L133.964 15.1907L133.968 15.1915L134.164 14.2109ZM130.78 14.2812L130.409 13.3527L130.401 13.3557L130.78 14.2812ZM130.165 14.7207L129.389 14.0901L129.384 14.0959L129.379 14.1018L130.165 14.7207ZM130.464 16.2588L129.949 17.1163L129.955 17.12L130.464 16.2588ZM133.478 6.06348L132.699 6.69003L132.706 6.69842L132.713 6.70667L133.478 6.06348ZM131.281 6.06348L132.047 6.7067L132.053 6.69918L131.281 6.06348ZM131.272 8.65625L130.481 9.26816L130.489 9.27733L131.272 8.65625ZM131.844 17.3242C130.565 17.3242 129.743 17.096 129.249 16.7694L128.145 18.4376C129.105 19.072 130.38 19.3242 131.844 19.3242V17.3242ZM129.247 16.7683C128.807 16.4783 128.616 16.1238 128.616 15.5996H126.616C126.616 16.7981 127.146 17.7795 128.147 18.4387L129.247 16.7683ZM128.616 15.5996C128.616 15.2353 128.721 14.9902 128.903 14.7939L127.436 13.4346C126.88 14.0352 126.616 14.7804 126.616 15.5996H128.616ZM128.903 14.7939C129.098 14.5839 129.439 14.3745 130.027 14.2346L129.564 12.2888C128.723 12.4888 127.98 12.8478 127.436 13.4346L128.903 14.7939ZM130.187 12.3416C130.086 12.2984 129.977 12.2218 129.864 12.0765L128.286 13.3044C128.583 13.6864 128.955 13.9906 129.404 14.1819L130.187 12.3416ZM129.871 12.0849C129.78 11.9651 129.767 11.8893 129.767 11.8379H127.767C127.767 12.3842 127.96 12.8767 128.279 13.296L129.871 12.0849ZM129.767 11.8379C129.767 11.6691 129.81 11.6046 129.843 11.5673L128.342 10.2452C127.942 10.7 127.767 11.2567 127.767 11.8379H129.767ZM129.851 11.5585C129.972 11.4178 130.186 11.2372 130.538 11.0309L129.528 9.30509C129.06 9.57918 128.647 9.89083 128.335 10.254L129.851 11.5585ZM130.429 9.24991C130.108 9.11094 129.853 8.89331 129.653 8.56935L127.952 9.62206C128.361 10.2825 128.927 10.7797 129.637 11.086L130.429 9.24991ZM129.657 8.57672C129.468 8.26461 129.354 7.87018 129.354 7.35547H127.354C127.354 8.17669 127.54 8.94242 127.948 9.61468L129.657 8.57672ZM129.354 7.35547C129.354 6.78678 129.477 6.37309 129.669 6.06523L127.972 5.00703C127.542 5.69527 127.354 6.49447 127.354 7.35547H129.354ZM129.667 6.0679C129.867 5.74958 130.161 5.49099 130.595 5.29968L129.788 3.46985C129.026 3.80589 128.406 4.31487 127.973 5.00436L129.667 6.0679ZM130.592 5.30113C131.036 5.1068 131.624 4.98926 132.388 4.98926V2.98926C131.43 2.98926 130.553 3.13539 129.791 3.4684L130.592 5.30113ZM132.388 4.98926C132.529 4.98926 132.706 4.99845 132.924 5.01969L133.118 3.02914C132.856 3.00351 132.611 2.98926 132.388 2.98926V4.98926ZM132.924 5.01969C133.151 5.04185 133.355 5.06635 133.535 5.09287L133.826 3.11416C133.608 3.08209 133.372 3.05386 133.118 3.02914L132.924 5.01969ZM133.539 5.09347C133.637 5.10739 133.713 5.11919 133.77 5.12889C133.832 5.13947 133.854 5.14465 133.851 5.14397L134.336 3.20369C134.208 3.17167 134.02 3.1419 133.822 3.11357L133.539 5.09347ZM134.094 5.17383H137.521V3.17383H134.094V5.17383ZM136.521 4.17383V5.53613H138.521V4.17383H136.521ZM137.272 4.56764L135.734 4.96315L136.232 6.90013L137.77 6.50463L137.272 4.56764ZM135.144 6.47583C135.231 6.6102 135.295 6.75094 135.338 6.9007L137.261 6.35126C137.163 6.00883 137.016 5.68668 136.822 5.38745L135.144 6.47583ZM135.338 6.9007C135.381 7.05093 135.405 7.2187 135.405 7.4082H137.405C137.405 7.04692 137.359 6.69321 137.261 6.35126L135.338 6.9007ZM135.405 7.4082C135.405 8.19897 135.145 8.71907 134.672 9.09767L135.923 10.6582C136.927 9.85319 137.405 8.72681 137.405 7.4082H135.405ZM134.673 9.09706C134.176 9.49454 133.407 9.75684 132.239 9.75684V11.7568C133.685 11.7568 134.954 11.4332 135.922 10.6588L134.673 9.09706ZM132.296 9.75843C132 9.74168 131.723 9.71949 131.466 9.69213L131.254 11.6809C131.548 11.7121 131.858 11.7368 132.183 11.7552L132.296 9.75843ZM130.744 9.89902C130.536 10.0617 130.342 10.2611 130.195 10.506L131.91 11.535C131.904 11.5456 131.915 11.5223 131.976 11.474L130.744 9.89902ZM130.195 10.506C130.037 10.7689 129.947 11.0685 129.947 11.3896H131.947C131.947 11.4174 131.943 11.4469 131.935 11.4754C131.927 11.5035 131.917 11.5236 131.91 11.535L130.195 10.506ZM129.947 11.3896C129.947 11.8367 130.149 12.2193 130.465 12.4831L131.745 10.9466C131.786 10.9808 131.842 11.0405 131.886 11.1302C131.93 11.2216 131.947 11.3133 131.947 11.3896H129.947ZM130.512 12.5199C130.785 12.7212 131.105 12.8249 131.386 12.8856L131.809 10.9308C131.74 10.916 131.699 10.9022 131.677 10.894C131.655 10.8853 131.668 10.8873 131.698 10.9098L130.512 12.5199ZM131.416 12.8917C131.719 12.9474 132.059 12.9697 132.424 12.9697V10.9697C132.132 10.9697 131.921 10.9511 131.779 10.9247L131.416 12.8917ZM132.424 12.9697H134.094V10.9697H132.424V12.9697ZM134.094 12.9697C135.047 12.9697 135.604 13.1769 135.919 13.4362L137.19 11.8919C136.38 11.2254 135.296 10.9697 134.094 10.9697V12.9697ZM135.923 13.4394C136.206 13.6703 136.407 14.0335 136.407 14.7031H138.407C138.407 13.5798 138.039 12.5836 137.186 11.8887L135.923 13.4394ZM136.407 14.7031C136.407 15.5144 136.096 16.0916 135.416 16.5398L136.516 18.2102C137.757 17.3928 138.407 16.1887 138.407 14.7031H136.407ZM135.413 16.5414C134.69 17.0204 133.542 17.3242 131.844 17.3242V19.3242C133.731 19.3242 135.331 18.9953 136.518 18.2086L135.413 16.5414ZM131.958 17.5752C132.656 17.5752 133.296 17.5085 133.861 17.3562L133.341 15.425C132.993 15.5189 132.537 15.5752 131.958 15.5752V17.5752ZM133.847 17.36C134.403 17.2192 134.927 16.9921 135.336 16.6224L133.994 15.1393C133.91 15.2149 133.725 15.3277 133.356 15.4212L133.847 17.36ZM135.326 16.6312C135.769 16.241 136.034 15.7144 136.034 15.0986H134.034C134.034 15.1071 134.033 15.109 134.034 15.1063C134.034 15.1033 134.036 15.0994 134.037 15.0959C134.039 15.0926 134.039 15.0934 134.035 15.0984C134.031 15.1037 134.022 15.1147 134.004 15.1305L135.326 16.6312ZM136.034 15.0986C136.034 14.6408 135.89 14.1714 135.521 13.8027L134.107 15.2169C134.078 15.1876 134.055 15.151 134.042 15.1164C134.03 15.0851 134.034 15.0745 134.034 15.0986H136.034ZM135.521 13.8027C135.187 13.4687 134.755 13.3094 134.36 13.2304L133.968 15.1915C134.056 15.2092 134.106 15.2279 134.129 15.2383C134.15 15.2482 134.136 15.2453 134.107 15.2169L135.521 13.8027ZM134.364 13.2311C133.986 13.154 133.543 13.123 133.056 13.123V15.123C133.472 15.123 133.768 15.1507 133.964 15.1907L134.364 13.2311ZM133.056 13.123H131.668V15.123H133.056V13.123ZM131.668 13.123C131.232 13.123 130.807 13.1933 130.409 13.3528L131.151 15.2097C131.28 15.1583 131.447 15.123 131.668 15.123V13.123ZM130.401 13.3557C130.012 13.5148 129.662 13.7538 129.389 14.0901L130.941 15.3513C130.972 15.3126 131.032 15.2586 131.159 15.2068L130.401 13.3557ZM129.379 14.1018C129.085 14.476 128.936 14.9179 128.936 15.3887H130.936C130.936 15.3762 130.937 15.3681 130.938 15.3637C130.939 15.3593 130.939 15.3571 130.94 15.3564C130.94 15.3557 130.94 15.3546 130.941 15.3527C130.942 15.3507 130.945 15.3463 130.95 15.3396L129.379 14.1018ZM128.936 15.3887C128.936 16.1533 129.336 16.7486 129.949 17.1163L130.978 15.4013C130.945 15.3815 130.928 15.3671 130.922 15.3608C130.916 15.3549 130.918 15.356 130.923 15.3648C130.929 15.3739 130.933 15.3843 130.936 15.393C130.938 15.4013 130.936 15.4011 130.936 15.3887H128.936ZM129.955 17.12C130.528 17.4581 131.229 17.5752 131.958 17.5752V15.5752C131.409 15.5752 131.114 15.4813 130.972 15.3976L129.955 17.12ZM132.388 10.1221C133.105 10.1221 133.817 9.89072 134.294 9.25866L132.698 8.05384C132.69 8.06407 132.682 8.0725 132.656 8.08384C132.621 8.09838 132.54 8.12207 132.388 8.12207V10.1221ZM134.294 9.25866C134.7 8.72048 134.847 8.06197 134.847 7.39062H132.847C132.847 7.78569 132.76 7.97093 132.698 8.05384L134.294 9.25866ZM134.847 7.39062C134.847 6.68603 134.705 5.96904 134.244 5.42028L132.713 6.70667C132.744 6.74385 132.847 6.91162 132.847 7.39062H134.847ZM134.258 5.43692C133.778 4.84061 133.089 4.61523 132.388 4.61523V6.61523C132.531 6.61523 132.609 6.63734 132.645 6.65213C132.675 6.6643 132.687 6.67543 132.699 6.69003L134.258 5.43692ZM132.388 4.61523C131.685 4.61523 130.995 4.83803 130.509 5.42777L132.053 6.69918C132.059 6.69127 132.107 6.61523 132.388 6.61523V4.61523ZM130.515 5.42028C130.054 5.96904 129.912 6.68603 129.912 7.39062H131.912C131.912 6.91162 132.016 6.74385 132.047 6.70667L130.515 5.42028ZM129.912 7.39062C129.912 8.06677 130.064 8.72904 130.481 9.26812L132.063 8.04438C132 7.96237 131.912 7.78088 131.912 7.39062H129.912ZM130.489 9.27733C130.972 9.8874 131.671 10.1221 132.388 10.1221V8.12207C132.11 8.12207 132.065 8.04619 132.056 8.03517L130.489 9.27733ZM147.346 4.5166L146.873 5.3981L146.88 5.40135L147.346 4.5166ZM149.402 9.75488V10.7549H150.402V9.75488H149.402ZM143.065 9.75488V8.75488H142.026L142.066 9.79361L143.065 9.75488ZM143.742 11.5391L143.025 12.2365L143.035 12.2462L143.742 11.5391ZM148.849 11.4072H149.849V9.83501L148.425 10.5015L148.849 11.4072ZM148.849 13.4814L149.292 14.378L149.849 14.1028V13.4814H148.849ZM147.319 14.0088L147.115 13.0299L147.113 13.0304L147.319 14.0088ZM142.775 13.6309L142.342 14.5322L142.345 14.5335L142.775 13.6309ZM140.991 11.9697L140.124 12.4681L140.127 12.4732L140.991 11.9697ZM140.93 6.29199L140.039 5.83664L140.038 5.8393L140.93 6.29199ZM142.564 4.56934L143.044 5.44697L143.049 5.44384L142.564 4.56934ZM143.716 6.39746L143.021 5.67824L143.015 5.68423L143.716 6.39746ZM143.127 7.9707L142.13 7.89713L142.05 8.9707H143.127V7.9707ZM146.889 7.9707V8.9707H147.903L147.889 7.956L146.889 7.9707ZM146.669 6.90723L145.752 7.30532L145.755 7.31255L145.758 7.31973L146.669 6.90723ZM146.054 6.16895L145.495 6.99825L145.503 7.00372L146.054 6.16895ZM144.999 4.98926C145.778 4.98926 146.391 5.13966 146.873 5.39808L147.818 3.63512C146.988 3.19042 146.036 2.98926 144.999 2.98926V4.98926ZM146.88 5.40135C147.358 5.65316 147.722 6.01317 147.986 6.50335L149.746 5.55329C149.296 4.71925 148.646 4.07145 147.812 3.63185L146.88 5.40135ZM147.986 6.50335C148.246 6.98539 148.402 7.6212 148.402 8.4541H150.402C150.402 7.37685 150.201 6.39546 149.746 5.55329L147.986 6.50335ZM148.402 8.4541V9.75488H150.402V8.4541H148.402ZM149.402 8.75488H143.065V10.7549H149.402V8.75488ZM142.066 9.79361C142.103 10.7321 142.391 11.5845 143.025 12.2364L144.459 10.8417C144.249 10.6265 144.087 10.2894 144.065 9.71615L142.066 9.79361ZM143.035 12.2462C143.695 12.9057 144.566 13.1807 145.518 13.1807V11.1807C144.957 11.1807 144.645 11.0279 144.449 10.832L143.035 12.2462ZM145.518 13.1807C146.212 13.1807 146.868 13.1093 147.48 12.9581L147 11.0165C146.569 11.1231 146.077 11.1807 145.518 11.1807V13.1807ZM147.48 12.9581C148.073 12.8116 148.67 12.5948 149.273 12.3129L148.425 10.5015C147.925 10.7353 147.451 10.9052 147 11.0165L147.48 12.9581ZM147.849 11.4072V13.4814H149.849V11.4072H147.849ZM148.406 12.5849C147.995 12.7875 147.566 12.9358 147.115 13.0299L147.524 14.9877C148.139 14.8592 148.729 14.6558 149.292 14.378L148.406 12.5849ZM147.113 13.0304C146.674 13.1229 146.106 13.1758 145.395 13.1758V15.1758C146.194 15.1758 146.91 15.1173 147.526 14.9872L147.113 13.0304ZM145.395 13.1758C144.534 13.1758 143.813 13.0176 143.206 12.7283L142.345 14.5335C143.262 14.9707 144.286 15.1758 145.395 15.1758V13.1758ZM143.209 12.7296C142.638 12.4553 142.191 12.0427 141.855 11.4663L140.127 12.4732C140.659 13.3851 141.401 14.0799 142.342 14.5322L143.209 12.7296ZM141.858 11.4714C141.541 10.9196 141.35 10.1671 141.35 9.15723H139.35C139.35 10.4091 139.586 11.5316 140.124 12.4681L141.858 11.4714ZM141.35 9.15723C141.35 8.11441 141.526 7.32634 141.821 6.74468L140.038 5.8393C139.56 6.78109 139.35 7.90317 139.35 9.15723H141.35ZM141.82 6.74734C142.129 6.14264 142.538 5.72327 143.044 5.44695L142.085 3.69172C141.196 4.17712 140.515 4.90619 140.039 5.83664L141.82 6.74734ZM143.049 5.44384C143.576 5.15183 144.215 4.98926 144.999 4.98926V2.98926C143.931 2.98926 142.947 3.2134 142.079 3.69483L143.049 5.44384ZM145.017 4.89648C144.26 4.89648 143.57 5.14805 143.021 5.67827L144.411 7.11665C144.553 6.9789 144.73 6.89648 145.017 6.89648V4.89648ZM143.015 5.68423C142.433 6.25633 142.192 7.05844 142.13 7.89713L144.124 8.04427C144.168 7.45328 144.319 7.20656 144.417 7.11069L143.015 5.68423ZM143.127 8.9707H146.889V6.9707H143.127V8.9707ZM147.889 7.956C147.881 7.44319 147.786 6.94968 147.58 6.49472L145.758 7.31973C145.833 7.48587 145.885 7.70134 145.889 7.98541L147.889 7.956ZM147.586 6.50913C147.376 6.02545 147.046 5.62561 146.604 5.33417L145.503 7.00372C145.612 7.07556 145.692 7.16791 145.752 7.30532L147.586 6.50913ZM146.613 5.33968C146.135 5.01791 145.579 4.89648 145.017 4.89648V6.89648C145.298 6.89648 145.433 6.9567 145.495 6.99821L146.613 5.33968Z" fill="black"/>
</g>
<defs>
<filter id="filter0_d_167_529" x="0.850403" y="0.324219" width="152.552" height="26" filterUnits="userSpaceOnUse" color-interpolation-filters="sRGB">
<feFlood flood-opacity="0" result="BackgroundImageFix"/>
<feColorMatrix in="SourceAlpha" type="matrix" values="0 0 0 0 0 0 0 0 0 0 0 0 0 0 0 0 0 0 127 0" result="hardAlpha"/>
<feOffset dy="4"/>
<feGaussianBlur stdDeviation="2"/>
<feComposite in2="hardAlpha" operator="out"/>
<feColorMatrix type="matrix" values="0 0 0 0 0 0 0 0 0 0 0 0 0 0 0 0 0 0 0.25 0"/>
<feBlend mode="normal" in2="BackgroundImageFix" result="effect1_dropShadow_167_529"/>
<feBlend mode="normal" in="SourceGraphic" in2="effect1_dropShadow_167_529" result="shape"/>
</filter>
</defs>
</svg>
